<?xml version="1.0" encoding="UTF-8"?>
<svg width="512px" height="512px" viewBox="0 0 512 512" version="1.1" xmlns="http://www.w3.org/2000/svg" xmlns:xlink="http://www.w3.org/1999/xlink">
    <title>icon-512</title>
    <defs>
        <linearGradient x1="0%" y1="0%" x2="98.2389437%" y2="98.2389437%" id="linearGradient-1">
            <stop stop-color="#FFA100" offset="0%"></stop>
            <stop stop-color="#ED633A" offset="100%"></stop>
        </linearGradient>
        <filter x="-12.6%" y="-15.0%" width="125.2%" height="131.6%" filterUnits="objectBoundingBox" id="filter-2">
            <feOffset dx="0" dy="2" in="SourceAlpha" result="shadowOffsetOuter1"></feOffset>
            <feGaussianBlur stdDeviation="12.5" in="shadowOffsetOuter1" result="shadowBlurOuter1"></feGaussianBlur>
            <feColorMatrix values="0 0 0 0 1   0 0 0 0 1   0 0 0 0 1  0 0 0 0.5 0" type="matrix" in="shadowBlurOuter1" result="shadowMatrixOuter1"></feColorMatrix>
            <feMerge>
                <feMergeNode in="shadowMatrixOuter1"></feMergeNode>
                <feMergeNode in="SourceGraphic"></feMergeNode>
            </feMerge>
        </filter>
    </defs>
    <g id="Page-1" stroke="none" stroke-width="1" fill="none" fill-rule="evenodd">
        <g id="icon-512" fill-rule="nonzero">
            <rect id="Rectangle" fill="url(#linearGradient-1)" x="0" y="0" width="512" height="512" rx="86"></rect>
            <g id="logo-sello" filter="url(#filter-2)" transform="translate(103, 134)" fill="#FFFFFF">
                <g id="Group" transform="translate(153, 122) scale(-1, 1) rotate(-180) translate(-153, -122)translate(-0, 0)">
                    <path d="M102.185088,243.969779 C102.140736,243.903248 100.167064,243.81454 97.7942221,243.725831 C74.3319174,242.927457 56.546692,238.09286 42.0657043,228.578903 C37.4974295,225.585001 34.4814811,222.901577 32.0199349,219.64155 C31.4211804,218.843176 30.1793193,217.401667 29.2700996,216.425877 C26.6533208,213.675922 25.4336358,210.571135 25.7662771,207.621586 C25.9215098,206.424025 26.9859622,204.028903 27.8064775,203.053113 C28.0947667,202.69828 28.5604646,201.877729 28.8044017,201.212418 C29.0705148,200.547106 29.8245019,199.216483 30.4676085,198.240692 C32.3304002,195.446383 34.9028268,193.228678 39.071932,190.833556 C41.1564846,189.635995 45.3034137,187.706591 45.8134638,187.706591 C45.9465203,187.706591 47.1218532,187.307404 48.4524187,186.819509 C53.9520894,184.757043 61.2923756,182.871993 71.1607363,180.964767 C74.6423827,180.277278 78.1905573,179.634143 79.0332488,179.501081 C79.8981163,179.368019 82.4261908,178.968832 84.6881521,178.591822 C91.1635708,177.527323 106.198961,175.730982 106.930772,175.908398 C107.019476,175.930575 109.347966,175.753159 112.142153,175.509211 C120.546892,174.799545 124.095067,174.599952 134.029956,174.378181 C148.621824,174.067703 161.328724,174.555598 177.384214,176.063637 C181.464615,176.462824 182.462539,176.57371 191.576913,177.726917 C195.413377,178.214812 201.06828,178.857946 204.106405,179.168425 C209.140377,179.678497 220.915882,181.16436 221.736397,181.386131 C221.913805,181.430485 222.423855,181.519193 222.845201,181.585724 C232.314392,182.982879 244.200777,185.555417 252.561164,188.01707 C263.516153,191.232743 271.832187,194.891957 276.910512,198.750764 C278.972889,200.325335 281.545315,203.030936 282.321478,204.472445 C286.047062,211.325154 282.365831,219.464134 273.783683,223.389472 C273.029696,223.744305 271.676954,224.276554 270.789911,224.60921 C267.840491,225.651532 253.803025,229.798641 249.656096,230.840963 C248.392058,231.151441 246.595795,231.594983 245.686575,231.83893 C242.071872,232.770366 234.177184,234.478 231.382996,234.943718 C230.784242,235.054603 229.121035,235.342905 227.701765,235.586852 C226.282495,235.8308 224.752345,236.096925 224.264471,236.163456 C223.798773,236.20781 222.911729,236.363049 222.290799,236.473935 C221.692045,236.606997 220.694121,236.762236 220.07319,236.828767 C219.474436,236.895299 218.365631,237.050538 217.63382,237.161423 C213.065545,237.848912 202.576254,239.046473 197.231816,239.490014 C196.389125,239.556545 194.637213,239.689607 193.351,239.82267 C188.671845,240.221857 177.184629,240.887168 173.858216,240.931523 C172.461122,240.931523 171.241437,240.998054 171.174909,241.042408 C171.086204,241.108939 165.630886,241.17547 159.066763,241.219824 C146.781208,241.308532 137.334193,241.153293 130.14914,240.709752 C127.399304,240.554513 125.314752,240.554513 123.828953,240.687575 C122.609268,240.79846 120.569068,240.9537 119.282855,241.042408 C115.801208,241.219824 114.182354,241.397241 114.182354,241.619011 C114.182354,241.707719 113.916241,241.840782 113.583599,241.885136 C113.228782,241.92949 114.359762,241.996021 116.067321,242.018198 C117.774881,242.040375 120.413835,242.084729 121.943986,242.151261 C126.445732,242.3065 135.981452,242.705687 139.795739,242.883103 L143.343914,243.06052 L140.682783,243.127051 C139.219161,243.149228 137.666835,243.215759 137.245489,243.260113 C136.824143,243.28229 134.11866,243.393176 131.257944,243.481884 C128.397228,243.570592 125.758273,243.681477 125.38128,243.748009 C124.538588,243.858894 102.318145,244.080664 102.185088,243.969779 Z M119.726377,240.288388 C119.548968,240.177503 117.907937,239.977909 116.067321,239.844847 C110.146305,239.401306 104.779691,238.824702 93.7803496,237.494079 C91.1192186,237.161423 82.4040147,235.786446 79.5876511,235.254197 C78.5453748,235.054603 77.4143941,234.85501 77.0374005,234.788478 C75.5516024,234.588885 66.3041723,232.526419 62.2902997,231.528451 C60.4718602,231.062733 56.4801638,229.95388 54.0407937,229.199861 C52.8432848,228.845028 51.8675368,228.60108 51.8675368,228.645434 C51.8675368,229.111152 58.4094837,231.971992 63.0664629,233.524386 C72.8904714,236.784413 82.0935494,238.469869 96.0423109,239.534368 C98.8364984,239.733962 100.965403,239.977909 100.810171,240.088794 C100.544057,240.266211 104.291817,240.354919 114.404115,240.42145 C117.597472,240.465804 119.903785,240.399273 119.726377,240.288388 Z M153.766677,237.050538 C156.316927,236.318695 158.312776,235.165488 160.086863,233.391324 C161.905302,231.572805 162.77017,230.175651 163.302396,228.179716 C163.901151,225.806771 163.590685,224.409617 162.304472,223.744305 C160.973907,223.056816 158.711945,223.544712 158.135367,224.675741 C158.024486,224.897512 157.869254,225.585001 157.780549,226.228135 C157.580965,227.824883 157.115267,228.822851 156.07299,229.95388 C153.944086,232.260294 152.258703,232.726012 146.226806,232.726012 C138.332117,232.726012 133.808195,231.83893 128.508109,229.310746 C119.504616,224.98622 113.871888,217.446022 113.051373,208.663908 C112.918316,207.333285 112.696556,206.024838 112.519147,205.758714 C111.742984,204.561153 109.458846,204.250674 108.216985,205.18211 C107.219061,205.913953 107.041652,206.490557 107.196885,208.530846 C107.817815,217.667792 113.029197,225.828948 121.877457,231.46192 C126.379204,234.344937 132.388925,236.451757 138.354293,237.272309 C141.769411,237.71585 151.926061,237.582787 153.766677,237.050538 Z M146.892089,230.175651 C151.460363,229.000267 154.587192,225.873302 155.119419,221.90361 C155.385532,219.885498 154.298903,218.754468 152.081294,218.754468 C151.08337,218.754468 150.861609,218.843176 150.196326,219.508488 C149.6641,220.040737 149.442339,220.462101 149.442339,220.949996 C149.442339,222.50239 148.311358,224.165669 146.670328,225.030574 C144.763184,226.006365 139.751387,225.718063 135.693162,224.38744 C131.79017,223.078993 128.973807,221.349183 126.357028,218.621405 C123.274551,215.383556 121.92181,212.522715 121.500464,208.353429 C121.367407,207.155868 121.12347,206.024838 120.923886,205.71436 C120.169898,204.561153 117.996641,204.250674 116.710428,205.115579 C115.446391,205.93613 115.313334,207.377639 116.111674,211.214269 C118.06317,220.683872 127.244072,228.401487 138.686935,230.153474 C141.43677,230.574838 145.273234,230.597015 146.892089,230.175651 Z M189.869354,225.230168 C194.637213,224.187846 199.471601,221.992318 202.554078,219.486311 C207.654579,215.317024 210.603999,210.282833 211.313634,204.561153 C211.468867,203.252707 211.535395,200.037034 211.491043,196.089518 L211.424515,189.74688 L210.892288,189.170277 C209.716956,187.906185 207.521523,187.884008 206.390542,189.081569 L205.769611,189.74688 L205.769611,195.889924 C205.769611,203.23053 205.570027,205.270819 204.594279,207.865534 C202.731487,212.855371 198.11886,217.224251 192.508309,219.331071 C189.314952,220.528632 187.696097,220.77258 182.773005,220.905642 C177.938617,221.038704 174.523499,220.794757 170.953148,220.085091 C156.671745,217.202074 146.71468,206.911921 142.811688,191.010972 C141.991172,187.662237 141.791588,186.353791 141.281537,181.740963 L141.126305,180.299455 L138.686935,180.365986 C135.160936,180.432517 135.382697,180.277278 135.560106,182.6724 C136.44715,194.337531 140.194909,204.184143 146.537271,211.591279 C152.790929,218.865353 162.481881,223.899545 172.904644,225.296699 C176.630227,225.806771 176.741108,225.806771 182.373835,225.74024 C186.831229,225.695886 188.050914,225.607178 189.869354,225.230168 Z M145.494995,223.056816 C146.115925,222.724161 146.781208,221.726193 146.781208,221.083059 C146.781208,220.417747 146.138101,219.508488 145.40629,219.131478 C145.007121,218.931884 143.676555,218.66576 142.434694,218.532697 C135.53793,217.845209 130.570485,213.653745 129.927379,207.909888 C129.683442,205.825245 129.306448,205.204287 127.975883,204.760746 C126.467908,204.250674 124.804702,204.915986 124.250299,206.224432 C124.006362,206.845389 123.984186,207.311108 124.183771,208.686085 C124.649469,212.101351 126.00221,214.784775 128.485933,217.312959 C131.901051,220.816934 136.358445,222.8794 141.569827,223.411649 C143.565675,223.611243 144.607951,223.522535 145.494995,223.056816 Z M185.034966,218.333104 C189.004486,217.512553 192.353076,215.849274 195.080735,213.321089 C198.562382,210.083239 200.225589,206.290963 200.225589,201.545073 C200.225589,199.438253 200.181236,199.216483 199.64901,198.595525 C198.518029,197.220548 196.167364,197.220548 195.036383,198.595525 C194.526333,199.194306 194.459805,199.46043 194.459805,201.123709 C194.459805,204.938163 193.506233,207.355462 191.000334,209.817115 C189.802826,211.014676 188.960134,211.613456 187.540864,212.278768 C184.569268,213.720276 183.127822,213.964224 178.648252,213.808985 C171.285789,213.565037 166.030056,211.702164 161.040435,207.621586 C154.808953,202.543041 150.706376,193.095616 149.77498,181.740963 L149.619748,179.878091 L148.13395,180.03333 C147.33561,180.099861 146.027221,180.166393 145.251058,180.166393 L143.831788,180.166393 L143.987021,182.317567 C144.474895,188.904152 146.071573,194.958488 148.688352,200.236627 C153.788853,210.504603 162.681466,216.847241 174.257385,218.421812 C177.561623,218.865353 182.639948,218.820999 185.034966,218.333104 Z M144.807536,216.314992 C146.692504,215.782742 147.291258,213.831162 145.982869,212.522715 C145.40629,211.946112 145.051473,211.81305 143.720908,211.65781 C141.791588,211.413863 140.682783,210.970322 139.729211,210.038885 C138.775639,209.129626 138.354293,208.309075 138.354293,207.399816 C138.354293,205.913953 136.935024,204.561153 135.360521,204.561153 C134.473477,204.561153 133.320321,205.137756 132.921151,205.758714 C131.723642,207.555055 133.342497,211.724341 136.025804,213.875516 C138.465174,215.80492 142.523399,216.935949 144.807536,216.314992 Z M183.748753,211.169915 C186.875581,210.016708 188.915782,207.488524 188.915782,204.738569 C188.915782,202.920051 186.631644,201.72249 184.768853,202.565218 C183.682224,203.053113 183.349583,203.4523 183.216526,204.561153 C183.061294,205.647828 182.17425,206.645796 181.198502,206.845389 C180.24493,207.044983 175.587951,206.623619 173.991272,206.202255 C167.560206,204.561153 163.413277,200.746699 160.663441,194.004875 C159.576813,191.343628 158.490184,186.043312 158.179719,181.896203 L158.046663,179.944622 L155.185947,179.944622 L152.325231,179.944622 L152.325231,180.898235 C152.325231,182.51716 152.990514,187.26305 153.567092,189.924297 C155.651645,199.283014 160.44168,205.825245 167.715438,209.218334 C172.549826,211.502571 180.311458,212.434007 183.748753,211.169915 Z M137.334193,201.678136 C138.265589,200.857585 138.465174,200.147919 138.043828,199.149951 C137.378545,197.553204 137.733363,197.597558 123.607193,197.442318 C111.831688,197.309256 110.85594,197.287079 109.192733,196.865715 C105.46715,195.889924 102.473377,194.625832 99.7900704,192.851668 C98.1490396,191.764992 95.1330912,188.859798 94.112991,187.373935 L93.2924756,186.198551 L90.720049,186.863863 C89.278603,187.240873 88.0367419,187.617883 87.9480375,187.684414 C87.3049309,188.283195 93.0263625,194.514947 96.0866631,196.577413 C98.1046874,197.930213 102.00768,199.815263 104.44705,200.635814 C105.955024,201.145886 109.569727,201.94426 111.410342,202.188208 C111.787336,202.232562 117.575296,202.299093 124.316827,202.32127 L136.55803,202.343447 L137.334193,201.678136 Z M184.813205,201.72249 C189.736297,200.613637 194.65939,198.48464 197.897099,196.089518 C200.026004,194.514947 203.485474,191.010972 204.616455,189.258985 C205.725259,187.595706 207.211057,184.646158 207.055825,184.490918 C206.944944,184.357856 202.310141,183.492951 201.755739,183.492951 C201.57833,183.492951 201.201337,183.958669 200.913047,184.557449 C198.451501,189.591641 193.107063,194.004875 187.030814,195.978633 C183.349583,197.176194 182.440363,197.309256 176.608051,197.442318 C170.797915,197.575381 170.376569,197.664089 169.57823,198.662056 C169.356469,198.906004 169.17906,199.504784 169.17906,199.99268 C169.17906,200.657991 169.334293,200.990647 169.955224,201.611605 L170.731387,202.387801 L176.78546,202.276916 C181.752904,202.188208 183.172174,202.077323 184.813205,201.72249 Z M134.429125,194.736718 C135.804043,193.694396 135.759691,191.920232 134.318245,191.033149 C133.60861,190.611785 133.187264,190.589608 124.605117,190.589608 C115.11375,190.589608 112.585675,190.434369 110.079777,189.680349 C107.285589,188.837621 103.959176,186.863863 102.473377,185.178407 L101.785919,184.380033 L98.9473789,184.956636 C97.3950525,185.267115 96.064487,185.555417 96.0423109,185.599771 C95.9092544,185.732833 97.7055178,188.01707 98.5703853,188.837621 C102.451201,192.452481 107.50735,194.670186 113.007021,195.224613 C114.093649,195.335498 119.149798,195.402029 124.294651,195.379852 L133.630786,195.357675 L134.429125,194.736718 Z M179.867937,195.24679 C187.895682,194.470593 194.681566,190.478723 198.007979,184.535272 C198.518029,183.626013 198.673262,183.182472 198.473677,183.071587 C198.340621,182.982879 197.165288,182.783285 195.834722,182.628046 C194.526333,182.472806 193.351,182.317567 193.195768,182.273213 C193.062711,182.228859 192.685717,182.605869 192.375252,183.115941 C191.111215,185.200584 188.605317,187.351758 185.92201,188.61585 C182.440363,190.27913 180.178402,190.589608 171.640607,190.589608 C165.71959,190.589608 165.298244,190.611785 164.632962,191.033149 C162.814522,192.142002 163.191516,194.381885 165.298244,195.135905 C166.384873,195.512914 176.186705,195.601623 179.867937,195.24679 Z M130.747894,188.127955 C131.080535,188.01707 131.634938,187.64006 131.989755,187.307404 C133.009855,186.353791 132.721566,184.623981 131.413177,183.892138 C131.058359,183.670367 128.596813,183.581659 122.165747,183.492951 C115.557271,183.382066 113.228782,183.293357 112.652203,183.04941 C111.986921,182.805462 111.454694,182.827639 108.372218,183.293357 C106.442898,183.581659 104.868395,183.869961 104.868395,183.958669 C104.868395,184.357856 106.952948,185.843719 108.749211,186.730801 C111.76516,188.194486 112.918316,188.327549 122.210099,188.349726 C127.3106,188.371903 130.348724,188.283195 130.747894,188.127955 Z M182.041194,187.728768 C184.61362,186.952571 186.609468,185.799365 188.427908,184.0252 C189.292775,183.160295 190.024586,182.339744 190.024586,182.206682 C190.024586,181.896203 189.448008,181.785318 186.321179,181.497016 L183.59352,181.230891 L182.928237,181.785318 C182.57342,182.095796 181.686376,182.583692 180.998917,182.871993 C179.757056,183.359888 179.446591,183.382066 171.064028,183.492951 C161.971831,183.603836 161.816598,183.626013 161.106963,184.646158 C160.641265,185.311469 160.663441,186.66427 161.151315,187.240873 C162.104887,188.39408 162.193592,188.39408 171.618431,188.305372 C179.934465,188.238841 180.466691,188.216663 182.041194,187.728768 Z" id="Shape"></path>
                    <path d="M15.9200926,208.885678 C15.520923,208.331252 15.1217533,207.887711 15.0108729,207.887711 C14.7004076,207.887711 11.640107,201.19024 9.62208264,196.022987 C2.43702902,177.638208 -1.11114561,154.551894 0.308124243,135.368742 C1.9713311,112.903386 7.04965604,94.3411908 16.9623689,74.7144974 C22.0406939,64.6239375 27.4073079,56.4849584 33.1952678,50.0979666 C35.1689399,47.9024382 39.6706865,43.5779125 39.6706865,43.8662143 C39.6706865,43.9327454 39.4489255,44.3541095 39.2049885,44.8198276 C38.8501711,45.4407851 39.3380451,45.0415982 41.023428,43.3117879 C43.2188611,41.0497283 45.7691116,38.9429081 45.9908725,39.1646786 C46.0574008,39.2312098 45.7469355,40.0517608 45.3255898,40.9831971 C44.6159549,42.557768 44.5716027,42.7351845 44.8820679,43.1787256 C45.1703571,43.6000896 45.1703571,43.6887978 44.8155397,44.0879848 C44.4385461,44.5537029 44.4385461,44.5537029 44.9264201,44.1323389 C45.1925332,43.9105684 45.3921181,43.6222666 45.369942,43.4670273 C45.3477659,43.3339649 45.4586463,43.2452567 45.613879,43.2896108 C45.7469355,43.3117879 45.857816,43.2674338 45.8356399,43.1787256 C45.7469355,42.934778 47.2327336,41.1162595 47.5210228,41.1162595 C47.6319033,41.1162595 47.3436141,41.5376235 46.8779162,42.0698728 C46.3900422,42.5799451 46.6118031,42.4025286 47.3879663,41.6706858 C48.1419534,40.938843 48.762884,40.4509478 48.762884,40.5840102 C48.762884,40.6948954 48.6520035,40.916666 48.4967709,41.0719054 C47.9201925,41.6485088 49.2951101,41.1162595 49.9603929,40.4953019 C51.3796627,39.1868557 52.3554108,38.8541999 51.8453607,39.8743444 C51.7123041,40.118292 52.3554108,39.5860427 53.2868066,38.6767834 C54.2182024,37.7675242 54.9721896,37.1022126 54.9721896,37.1909208 C54.9721896,38.078003 51.0470214,43.4004961 47.4323185,47.4367201 C42.7531632,52.670505 38.3844732,58.347831 34.3040723,64.5130522 C31.9090545,68.1500892 29.6914453,71.720595 29.6914453,71.9867196 C29.6914453,72.0976049 29.4253322,72.2750214 29.1148669,72.3859066 C28.5604646,72.6076772 28.0504145,73.5391135 25.8549815,78.4180655 C25.5445162,79.1055542 25.1009944,79.837397 24.8570574,80.0813446 C24.6352965,80.3031152 24.0143659,81.5893843 23.4821397,82.9200076 C22.328983,85.8695559 21.9963417,86.6679299 19.889613,91.7908295 C18.9803932,93.9863579 17.960293,96.5588963 17.6054756,97.5125096 C17.2728342,98.4439459 16.9180167,99.2201428 16.8071363,99.2201428 C16.6075514,99.2201428 15.9422687,101.326963 14.9221685,105.097062 C14.6117032,106.294623 14.2125336,107.492184 14.0573009,107.758309 C13.9020683,108.002257 13.7024835,108.556683 13.6137791,108.978047 C13.5472508,109.399411 13.0815529,111.195752 12.615855,112.969917 C9.11203254,125.921317 7.6705866,137.697333 7.64841051,153.443042 C7.62623441,160.783647 7.6705866,161.670729 8.13628452,164.309798 C8.66851071,167.370232 9.55555437,171.561695 10.0434284,173.424568 C10.2651893,174.222942 10.2873654,174.666483 10.1099567,174.954785 C9.97690011,175.220909 9.93254792,176.728949 10.0212523,179.212779 C10.1321327,182.361921 10.1099567,183.093764 9.86601965,183.182472 C9.51120219,183.315534 9.55555437,183.515128 10.7308872,187.373935 C11.4405221,189.658172 11.5292265,190.12389 11.3074656,190.722671 C10.686535,192.408127 11.1965851,196.422174 12.5049745,200.458398 C13.2146095,202.587395 13.347666,202.920051 15.2991621,206.845389 C16.1418535,208.508669 16.7849602,209.883646 16.740608,209.883646 C16.6740797,209.883646 16.3192623,209.440105 15.9200926,208.885678 Z" id="Path"></path>
                    <path d="M285.847477,203.784956 C285.847477,203.297061 285.914005,202.543041 286.024886,202.121677 C286.667992,199.61567 287.865501,195.579446 288.375551,194.248822 C291.524556,185.954604 294.363096,173.823755 295.272316,164.819871 C295.36102,163.910611 295.516253,163.356185 295.649309,163.378362 C296.004127,163.444893 296.203712,161.648552 296.225888,158.078046 C296.248064,156.370413 296.336768,154.88455 296.447649,154.751488 C296.580705,154.640603 296.580705,152.999501 296.469825,150.560025 C296.358944,148.364496 296.248064,143.374659 296.248064,139.471497 C296.225888,134.614722 296.115007,131.443403 295.893246,129.403114 C295.693662,127.784189 295.604957,126.231796 295.671485,125.987848 C295.738014,125.721723 295.649309,124.479808 295.471901,123.193539 C295.294492,121.885093 295.006203,119.201669 294.806618,117.183557 C293.986102,108.689745 292.589009,99.5527987 290.726217,90.3271439 C290.127463,87.3554186 289.173891,82.6317059 288.597312,79.81522 C288.020734,77.0209111 287.155866,73.4725823 286.667992,71.9423655 C285.71442,68.9706402 283.740748,63.9808029 282.831528,62.2066385 C282.432359,61.4082645 282.321478,60.9203693 282.432359,60.3437659 C282.498887,59.8336937 282.277126,58.5030704 281.700548,56.307542 C281.013089,53.6019413 280.924385,52.9588067 281.146146,52.6039738 C281.367906,52.2269639 281.190498,51.8055998 279.682523,49.3661238 C278.108021,46.7935855 277.952788,46.4165755 277.797556,44.997244 C277.597971,43.1787256 276.666575,41.1384365 274.959016,38.7876687 C272.896639,35.9711828 270.56815,33.9087167 266.70951,31.4692407 C265.755938,30.8704602 265.024127,30.3603879 265.068479,30.3160338 C265.090655,30.2716797 265.578529,30.4490961 266.110756,30.6930437 C266.642982,30.9369913 267.286088,31.1365848 267.507849,31.1365848 C268.084428,31.1365848 271.455194,33.7091232 273.894564,36.0155369 C282.033189,43.6222666 288.04291,54.28943 293.254291,70.3899717 C297.002051,81.9442172 298.842666,89.3069994 301.880791,105.207948 C303.677054,114.544488 305.229381,126.963638 305.783783,136.566303 C306.072072,141.622671 306.072072,153.132563 305.783783,158.055869 C305.362437,165.241235 304.297985,172.692725 302.967419,178.059572 C301.592502,183.603836 300.882867,185.666302 298.665258,190.678317 C297.733862,192.785137 297.68951,192.829491 297.578629,192.119825 C297.467749,191.410159 297.379044,191.543222 296.514177,193.805281 C295.538429,196.289111 293.875222,199.416076 293.476052,199.526961 C293.342996,199.549138 293.298644,198.86165 293.32082,197.797151 C293.387348,196.488705 293.298644,195.823393 293.032531,195.313321 C292.832946,194.914134 292.722065,194.49277 292.81077,194.359708 C292.877298,194.248822 292.855122,194.137937 292.744241,194.137937 C292.611185,194.137937 292.455952,194.381885 292.389424,194.692363 C292.078959,195.956456 290.659689,198.573348 290.304871,198.573348 C290.08311,198.573348 289.57306,199.172129 289.040834,200.059211 C288.220319,201.412011 287.599388,201.922083 287.776797,201.079355 C287.821149,200.901939 287.754621,200.813231 287.621564,200.901939 C287.488508,200.96847 287.377627,201.168063 287.377627,201.301126 C287.377627,201.456365 287.02281,202.276916 286.601464,203.119644 L285.847477,204.672038 L285.847477,203.784956 Z" id="Path"></path>
                    <path d="M122.986262,154.707134 C122.786677,153.37651 122.609268,151.957179 122.609268,151.513638 C122.609268,150.648733 123.141495,150.005598 123.895482,150.005598 C124.383356,150.005598 124.494236,150.094306 125.736097,151.624523 C126.334852,152.334189 126.534437,152.445074 127.377128,152.445074 L128.352876,152.445074 L128.508109,151.180982 C128.818574,148.608444 128.131115,141.977504 126.933606,135.923168 C126.113091,131.84259 126.024387,130.312374 126.578789,129.447468 C126.889254,128.959573 127.244072,128.693449 127.754122,128.60474 C128.574637,128.471678 134.22954,128.072491 134.318245,128.139022 C134.340421,128.183376 134.140836,128.98175 133.874723,129.957541 C133.142912,132.640964 133.076384,138.872717 133.697314,145.725427 C134.273893,152.289835 134.207364,152.02371 135.094408,151.846294 C136.203213,151.6467 136.757615,151.203159 137.356369,150.005598 C138.043828,148.630621 138.797815,148.342319 139.596155,149.140693 C140.084029,149.650765 140.106205,149.828182 140.128381,152.555959 C140.150557,154.152707 140.150557,155.527685 140.150557,155.63857 C140.128381,155.749455 139.995324,155.705101 139.840092,155.572039 C139.196985,155.03979 136.203213,154.840196 132.721566,155.106321 C127.643241,155.505508 125.292576,155.993403 123.496312,157.035725 C123.429784,157.080079 123.208023,156.037757 122.986262,154.707134 Z" id="Path"></path>
                    <path d="M170.066104,156.01558 C169.312117,155.572039 166.140936,155.106321 162.193592,154.862373 C159.865102,154.707134 157.957958,154.574071 157.935782,154.551894 C157.89143,154.529717 158.068839,153.620458 158.2906,152.533782 C159.066763,149.007631 159.288524,145.769781 159.221995,140.025924 C159.177643,137.032021 159.133291,133.505869 159.111115,132.153069 C159.088939,129.491823 159.332876,128.516032 160.175567,128.050314 C160.574737,127.850721 161.794422,127.872898 166.185288,128.161199 C169.223413,128.360793 172.0176,128.493855 172.394594,128.427324 L173.104229,128.316439 L173.237285,130.778092 C173.481222,134.969555 173.459046,135.679221 172.948996,136.21147 C172.0176,137.209438 170.48745,136.610657 169.622582,134.925201 C168.802067,133.306276 166.717514,132.197423 165.941351,132.97362 C165.009955,133.905056 164.233792,140.868652 164.344673,147.455237 L164.411201,151.668877 L165.653062,151.735408 C167.294093,151.824117 167.892847,151.557992 168.66901,150.404785 C169.46735,149.207224 170.48745,148.985454 171.064028,149.872536 C171.39667,150.382608 171.39667,150.626556 171.086204,153.110386 C170.88662,154.596249 170.731387,155.904695 170.731387,156.01558 C170.731387,156.259528 170.509626,156.259528 170.066104,156.01558 Z" id="Path"></path>
                    <path d="M141.592003,153.176917 C142.301638,149.495526 142.168581,141.423078 141.32589,135.878814 C141.126305,134.548191 140.948896,132.419194 140.92672,131.110748 C140.904544,128.915219 140.948896,128.693449 141.414594,128.22773 C141.880292,127.739835 142.079877,127.717658 145.18453,127.717658 C147.601724,127.717658 148.422239,127.784189 148.400063,127.983783 C148.355711,128.139022 148.089598,129.514 147.779132,131.022039 C146.71468,136.233647 146.803384,140.003746 147.978717,141.090422 C148.488767,141.578317 149.863685,142.021858 150.817257,142.021858 C151.349483,142.021858 151.393835,141.955327 151.327307,141.312193 C151.282955,140.913006 151.172074,139.493674 151.105546,138.140874 C151.039018,136.810251 150.883785,134.659076 150.772905,133.372807 C150.484615,130.401082 150.662024,128.804334 151.349483,128.116845 C151.837357,127.62895 152.014766,127.606773 155.097242,127.606773 C157.824902,127.606773 158.312776,127.651127 158.312776,127.939429 C158.312776,128.116845 158.113191,129.159167 157.89143,130.223665 C156.915682,134.592545 156.449984,141.888796 156.782625,147.632653 C157.048738,152.156772 156.915682,153.420865 156.161695,154.174884 C155.607293,154.729311 155.56294,154.729311 152.923985,154.574071 C151.460363,154.50754 150.218502,154.396655 150.17415,154.352301 C150.129798,154.307947 150.196326,154.019645 150.329383,153.686989 C150.662024,152.77773 150.994666,150.426962 151.039018,148.630621 C151.08337,146.235499 150.351559,145.348417 148.311358,145.348417 L147.402139,145.348417 L147.601724,147.299997 C147.690428,148.364496 147.779132,150.271723 147.779132,151.513638 C147.779132,154.618426 147.73478,154.662921 144.009197,154.662921 L141.303714,154.662921 L141.592003,153.176917 Z" id="Path"></path>
                    <path d="M165.919175,145.304063 C164.655138,144.03997 164.522081,143.796023 164.522081,142.975472 C164.522081,141.112599 164.677314,140.868652 166.407049,139.737622 C167.316269,139.138841 168.225489,138.6953 168.447249,138.739654 C169.289941,138.894894 169.489526,139.870684 169.201237,142.775878 C168.890771,145.836312 168.646834,146.545978 167.848495,146.634686 C167.427149,146.67904 166.983627,146.368561 165.919175,145.304063 Z" id="Path"></path>
                    <path d="M220.294951,132.552256 C218.365631,131.044216 211.468867,128.870865 203.330241,127.274117 C201.689211,126.941461 200.314293,126.65316 200.292117,126.630982 C200.247765,126.608805 200.580406,125.921317 201.001752,125.122943 C202.421022,122.439519 203.884644,117.959754 205.104329,112.41549 C206.168781,107.669601 206.390542,106.228092 206.989296,100.107225 C207.76546,92.2787247 208.253334,90.5267374 209.894364,89.7505405 C210.559647,89.4178847 210.847936,89.4178847 212.267206,89.6396552 C214.28523,89.9944881 225.107162,92.6779117 226.703841,93.2323381 C227.369124,93.4541086 228.877098,93.7645874 230.030255,93.9198268 C231.24994,94.0750662 232.15916,94.2968367 232.15916,94.429899 C232.15916,94.5629614 232.003927,95.5165747 231.826518,96.5588963 C231.626933,97.5790408 231.338644,99.6415069 231.183411,101.105193 C231.006003,102.591055 230.73989,104.032564 230.606833,104.343042 C230.274192,105.074885 229.298444,105.651489 228.389224,105.651489 C226.88125,105.651489 225.750269,104.58699 224.486232,102.014452 C223.244371,99.5084446 221.980334,98.4883 219.696197,98.1334672 L218.587392,97.9560507 L217.63382,99.9741627 C216.569368,102.191868 215.504916,105.141416 214.861809,107.558715 C213.730828,111.728002 211.491043,124.080621 211.801508,124.3911 C211.868037,124.457631 212.865961,124.723756 214.06347,124.98988 C216.813305,125.633015 217.744701,125.433422 219.430084,123.814497 C220.716297,122.616936 221.337228,122.461696 222.401679,123.104831 C223.000434,123.459664 223.510484,124.213684 223.510484,124.790287 C223.510484,125.167297 220.98241,132.929266 220.849354,132.907184 C220.782825,132.907184 220.538888,132.75185 220.294951,132.552256 Z" id="Path"></path>
                    <path d="M80.4968708,130.134957 C76.4386461,129.336583 72.8461193,126.786222 70.2736927,122.88306 C68.2113161,119.756096 66.0158831,114.30054 65.3062482,110.530441 C63.5986891,101.570911 67.7234421,94.4964302 76.2390612,91.7686525 C81.7387319,89.9944881 87.2605787,90.349321 90.8087533,92.7000888 C95.332676,95.6939911 97.9051026,103.433783 95.0222107,105.318833 C94.7339215,105.518426 92.671545,106.072853 90.4317598,106.538571 C88.1919745,107.026466 86.2404785,107.470007 86.1074219,107.514361 C85.9300132,107.580892 85.885661,107.048643 85.9521893,105.695843 C86.1739502,101.72615 84.5107434,98.887487 81.7165558,98.466123 C79.565475,98.1334672 77.4143941,99.1979658 76.4386461,101.060838 C76.0394764,101.814858 75.9507721,102.347108 75.9507721,103.877324 C75.9729482,105.806728 75.9951242,105.895436 78.5897269,114.965852 C78.9888966,116.363006 79.4324184,118.026285 79.5876511,118.625066 C80.2307577,121.086719 81.7387319,123.437487 83.1801779,124.191506 C83.9563411,124.590693 85.7526045,124.590693 86.7061764,124.191506 C87.4823396,123.858851 88.4580876,122.949591 88.8572573,122.173394 C89.3673074,121.175427 89.3673074,119.756096 88.9016095,118.070639 C88.0810941,115.165445 87.8593332,115.453747 91.5627404,114.611019 C95.332676,113.746114 96.2862479,113.70176 97.2619959,114.30054 C98.5038571,115.05456 98.7699702,115.852934 98.7477941,118.735951 C98.7477941,121.15325 98.7034419,121.375021 97.993807,122.905237 C96.9958828,125.078589 95.2439716,126.719691 92.427608,128.116845 C88.1254463,130.245842 84.3776868,130.888977 80.4968708,130.134957 Z" id="Path"></path>
                    <path d="M101.874623,125.477776 C102.096384,124.280215 102.029856,119.733918 101.763743,117.427505 C100.787994,109.488119 99.8122465,105.141416 97.2176438,97.1133226 C96.5301849,95.0065025 95.7761978,91.4581737 95.7761978,90.4823833 C95.7983739,89.4400617 96.4636566,88.331209 97.3285242,87.8876679 C98.0381591,87.532835 107.928696,85.7808477 108.128281,85.9804412 C108.172633,86.0247953 108.061752,87.3110645 107.862168,88.8191042 C107.285589,93.4762857 107.219061,96.7806668 107.618231,99.8411004 C108.106105,103.522491 108.749211,104.720052 110.722883,105.540603 C111.587751,105.895436 114.271058,106.028499 115.33551,105.762374 L115.889913,105.629312 L115.468567,103.145482 C115.22463,101.770504 114.581523,98.9540182 114.049297,96.869375 C112.38609,90.371498 112.097801,87.9763761 112.807436,86.5792217 C113.428367,85.3151295 114.093649,85.093359 118.728452,84.6054638 C121.056942,84.3393391 123.429784,84.0953915 124.028538,84.0288604 L125.115167,83.895798 L124.959934,84.6276408 C124.205947,88.1537925 123.96201,95.2948042 124.383356,101.326963 C124.671645,105.607135 124.959934,107.669601 125.980034,113.302573 C127.044487,119.223846 127.066663,121.241958 126.135267,122.195572 C125.580865,122.749998 125.270399,122.816529 121.056942,123.304424 C118.57322,123.592726 116.510843,123.792319 116.466491,123.747965 C116.399963,123.703611 116.466491,122.88306 116.599548,121.951624 C116.910013,119.822627 116.910013,115.387216 116.599548,114.100947 C116.089498,111.883241 114.958517,111.107044 112.186505,111.107044 C109.902368,111.107044 109.702783,111.195752 109.991072,112.149366 C110.722883,114.611019 112.009097,120.110928 112.119977,121.264135 C112.27521,122.905237 111.831688,124.058444 110.900292,124.479808 C110.589827,124.635048 108.616155,125.056412 106.531602,125.411244 C104.469226,125.788254 102.51773,126.143087 102.22944,126.209618 C101.71939,126.342681 101.71939,126.298327 101.874623,125.477776 Z" id="Path"></path>
                    <path d="M196.123012,125.411244 C195.457729,125.167297 194.104987,125.078589 190.80075,125.056412 C185.788953,125.012057 185.057142,124.878995 182.262954,123.526195 C179.912289,122.395165 177.761208,120.377053 176.829812,118.403295 C176.27541,117.227911 176.186705,116.762193 176.098001,114.411425 C175.987121,111.018336 176.341938,109.377234 177.605975,107.758309 C179.801408,104.897469 181.974665,103.566846 187.496512,101.659619 C193.151415,99.685861 194.969855,98.466123 194.969855,96.5588963 C194.969855,95.3391583 194.038459,93.9863579 192.84095,93.4319316 C190.357228,92.3230788 186.299003,93.5871709 182.728652,96.5588963 C180.422339,98.5104771 179.601823,98.8431329 178.426491,98.3108836 C177.69468,97.9782278 176.940692,96.5810733 176.940692,95.5387518 C176.940692,95.0508566 177.095925,94.1859514 177.29551,93.5649939 C178.027321,91.1476949 178.692604,88.3977401 178.82566,87.0892939 L178.980893,85.7364936 L181.885961,85.7364936 C183.504816,85.7364936 185.655896,85.6256083 186.698173,85.492546 C191.732145,84.8272343 196.743942,85.7808477 199.759891,87.9985532 C203.130656,90.4823833 204.882568,94.0972432 204.882568,98.5548312 C204.882568,103.278544 203.441122,106.937758 200.868695,108.778453 C200.513878,109.022401 198.606734,109.70989 196.633062,110.30867 C190.889454,112.016303 188.117443,112.94774 187.341279,113.479989 C186.43206,114.100947 185.655896,115.187622 185.345431,116.340829 C184.968438,117.804515 185.456312,118.713774 187.030814,119.312554 C187.895682,119.64521 188.095266,119.64521 189.181895,119.312554 C190.667693,118.89119 192.064787,118.004108 193.816698,116.40736 C196.610886,113.834822 198.296269,113.812645 199.116784,116.385183 C199.493777,117.582744 199.24984,119.024253 198.207564,121.75203 C197.741866,123.016123 197.342697,124.280215 197.320521,124.568516 C197.298344,125.633015 197.09876,125.766077 196.123012,125.411244 Z" id="Path"></path>
                    <path d="M172.283713,123.504018 C171.463198,123.082654 169.356469,122.572581 167.183212,122.28428 C166.140936,122.151217 165.009955,121.995978 164.632962,121.929447 C164.278144,121.885093 161.195668,121.774208 157.802726,121.685499 C151.682124,121.552437 151.615596,121.552437 151.726477,121.086719 C151.793005,120.820594 152.059118,119.866981 152.303055,118.957722 C153.167922,115.80858 153.52274,111.617116 153.52274,104.431751 C153.52274,99.1092576 153.456212,97.1576768 153.101394,94.6738466 C152.546992,90.4602062 152.50264,85.4038378 153.057042,84.4280473 C153.722325,83.1861323 154.298903,83.0308929 158.445832,83.0308929 C160.463857,83.0308929 164.389025,83.1861323 167.161036,83.3857258 C169.910872,83.5853193 173.148581,83.6962045 174.34609,83.6518504 L176.497171,83.5631422 L176.497171,84.9159425 C176.497171,85.6477854 176.608051,87.9098449 176.763284,89.9279569 C177.007221,93.4541086 177.007221,93.6537021 176.585875,94.3633679 C175.76536,95.7605223 173.702983,95.9379387 172.195009,94.7625548 C171.862368,94.4964302 171.064028,93.5649939 170.398746,92.6557346 C168.802067,90.5045603 167.604558,89.8614258 165.453477,89.950134 L163.989855,90.0166651 L163.701566,91.0146326 C163.124988,92.9218593 162.548409,95.8935846 162.415353,97.4903326 C162.326648,98.3774148 162.215768,99.2423199 162.171416,99.4197363 C162.016183,99.9076315 162.060535,113.258218 162.215768,115.320685 L162.371,117.117026 L164.100736,117.272265 C166.917099,117.516213 168.757715,116.873078 169.533878,115.365039 C170.465274,113.568697 172.0176,113.102979 173.192933,114.278363 C173.94692,115.05456 174.013448,115.830757 173.525574,119.024253 C173.348166,120.133105 173.148581,121.641145 173.104229,122.350811 C173.0377,123.060477 172.948996,123.681434 172.904644,123.725788 C172.882468,123.770142 172.594179,123.659257 172.283713,123.504018 Z" id="Path"></path>
                    <path d="M149.109698,122.372988 C146.648152,121.463729 137.932948,121.485906 129.883026,122.417342 C129.284272,122.483873 128.818574,122.483873 128.818574,122.417342 C128.818574,122.372988 128.995983,121.641145 129.195568,120.798417 C129.528209,119.534325 129.594737,118.248056 129.572561,112.859032 C129.572561,104.764407 129.23992,101.881389 127.399304,92.8331511 C126.711845,89.550947 126.556613,86.1135035 127.044487,85.1598902 C127.82065,83.6074963 129.639089,83.3191946 139.795739,83.1196011 C143.654379,83.05307 146.980793,82.8756535 148.111774,82.67606 C149.15405,82.4986436 150.06327,82.3655813 150.129798,82.3655813 C150.196326,82.3655813 150.329383,83.0974241 150.395911,83.9845063 C150.484615,84.8494114 150.795081,87.0005857 151.08337,88.752573 C151.682124,92.2121936 151.615596,93.0105675 150.6842,93.8754727 C149.952389,94.5629614 148.599648,94.7182007 147.601724,94.2303055 C147.158202,94.030712 146.093749,93.1214528 145.251058,92.2121936 C143.321738,90.1719045 142.235109,89.6174782 140.172733,89.6618323 C139.374394,89.6618323 138.620406,89.7727175 138.48735,89.9057799 C137.622482,90.770685 137.245489,99.2201428 137.777715,105.318833 C138.132532,109.421588 138.686935,114.30054 138.975224,116.074704 L139.152633,117.072672 L141.015424,117.006141 C144.27531,116.895255 145.273234,116.40736 146.226806,114.522311 C147.202554,112.592907 148.666176,112.171543 149.930213,113.435635 L150.617672,114.100947 L150.462439,116.78437 C150.395911,118.270233 150.329383,120.199637 150.329383,121.108896 C150.329383,121.995978 150.262854,122.727821 150.17415,122.705644 C150.06327,122.705644 149.597572,122.550404 149.109698,122.372988 Z" id="Path"></path>
                    <path d="M218.077342,118.270233 C217.367707,117.9154 213.974765,113.435635 213.996941,112.903386 C213.996941,112.637261 214.218702,111.683648 214.484815,110.774388 L214.972689,109.133286 L217.722525,108.157496 C220.960234,107.026466 221.780749,106.959935 222.312975,107.758309 C223.000434,108.80063 222.401679,112.304605 220.893706,116.274298 C220.117543,118.248056 219.274851,118.869013 218.077342,118.270233 Z" id="Path"></path>
                    <path d="M167.02798,109.70989 C166.62881,109.488119 165.409125,108.534506 164.30032,107.580892 C162.326648,105.851082 162.304472,105.828905 162.304472,104.808761 C162.304472,104.232157 162.371,103.256367 162.437529,102.657586 L162.570585,101.548734 L165.032131,100.107225 C168.092432,98.3108836 168.55813,98.1556442 169.267765,98.6213624 C170.154809,99.2201428 170.420922,100.905599 170.110456,104.099095 C169.777815,107.470007 169.489526,108.822808 168.935123,109.532473 C168.402897,110.197785 167.981552,110.219962 167.02798,109.70989 Z" id="Path"></path>
                    <path d="M142.257285,108.756276 C141.680707,108.379266 140.52755,107.580892 139.729211,106.959935 C138.110356,105.740197 137.955124,105.407541 137.932948,102.85718 C137.910772,101.548734 137.822067,101.637442 140.904544,99.4640905 C142.767336,98.1334672 143.25521,97.8895196 143.898316,97.9338737 C144.563599,98.0004048 144.741008,98.1334672 145.118001,98.887487 C145.472819,99.6193298 145.561523,100.351173 145.628051,102.945888 C145.672404,104.675698 145.650227,106.649456 145.583699,107.292591 C145.29541,109.465942 144.164429,109.953837 142.257285,108.756276 Z" id="Path"></path>
                    <path d="M58.7421251,92.0126001 C58.7421251,91.9238918 58.963886,91.5025278 59.207823,91.0811638 C59.7400492,90.2384357 59.6513449,91.1033408 60.5605646,76.9322028 C61.1149669,68.6601614 61.1593191,62.3175238 60.7379733,58.4143622 C60.2279232,53.9567742 60.5383885,51.7612457 61.7137214,50.9628718 C62.2015954,50.6745701 70.6950384,48.4346875 71.4268494,48.4346875 C71.6929625,48.4346875 71.8481951,48.7895204 72.04778,50.0536125 C72.4691257,52.7592132 73.3561694,55.531345 74.4206218,57.5716341 C75.462898,59.5453919 77.7026833,62.4949402 78.0131486,62.2953467 C78.124029,62.2509926 78.2570856,61.3195563 78.3236138,60.2550577 C78.5897269,55.7752926 79.2106575,49.5878944 79.4989467,48.5233957 C79.809412,47.3480118 80.2751099,46.6827002 81.029097,46.2613362 C81.4282666,46.0617427 89.52254,44.4428177 90.1878228,44.4428177 C90.3652315,44.4428177 90.3652315,44.6202341 90.1878228,45.1303064 C89.1898987,48.0133235 93.8247018,57.52728 106.287665,78.0188785 C107.086004,79.3495018 107.751287,80.5248857 107.751287,80.6135939 C107.751287,80.7244792 107.418646,80.8575415 107.041652,80.9240727 C93.8468779,83.1861323 94.0686388,83.1861323 93.1815951,81.855509 C92.4054319,80.7244792 92.4941363,79.43821 93.4477082,77.8636391 C94.9335063,75.4019861 95.1996194,74.2487792 95.1996194,70.3899717 C95.1996194,67.1521217 95.1774433,66.8859971 94.6452171,65.7327902 C94.0686388,64.4686981 92.9376581,63.3154912 92.2723754,63.2711371 C90.5869924,63.1380748 89.9438858,64.424344 88.8794334,70.0573159 C88.2806789,73.2064577 88.1476224,78.9281378 88.6354964,80.5470628 C89.0124899,81.8111549 90.0547662,82.9421847 91.0748664,83.1861323 L91.8953818,83.4079028 L91.0083382,83.6296734 C90.5204641,83.7627357 88.1697984,84.272808 85.7969567,84.8050573 C83.4241149,85.3151295 80.9182165,85.891733 80.2529338,86.0469723 C77.4587463,86.7566381 76.0838286,86.2909199 75.6181307,84.4724015 C75.3076654,83.2526634 75.3963698,82.8091224 76.5051743,80.2144069 C77.6805072,77.4644522 78.1018529,75.4019861 77.9466203,73.1842806 C77.7692116,70.5895652 76.5051743,68.2166203 74.8863197,67.3738923 C74.3097413,67.0634135 74.1766847,67.0634135 73.7331629,67.3738923 C73.4448737,67.5513087 73.1122324,67.9726727 72.9791758,68.3275056 C72.7574149,68.9484631 72.4025974,74.6923203 72.1143082,82.1438107 C72.0256039,84.7607032 71.8703712,86.5126905 71.6707864,86.9562316 C71.2494407,88.0207302 69.9410513,88.752573 67.1246877,89.573124 C64.1974436,90.4380292 59.6069927,91.8351836 59.0969426,92.0347771 C58.8973577,92.1013083 58.7421251,92.1013083 58.7421251,92.0126001 Z" id="Path"></path>
                    <path d="M247.19455,91.7686525 C245.154349,91.0589867 243.468966,88.5308025 243.468966,86.2243888 C243.468966,84.294985 244.666475,80.5470628 246.019217,78.2406491 C246.861908,76.7769635 248.236826,75.357632 249.434335,74.6479662 C250.787076,73.8495922 253.292975,73.8052381 254.667892,74.5370809 C255.909753,75.2023926 256.907678,76.3112453 257.329023,77.4644522 C257.750369,78.6841902 257.750369,81.2123744 257.329023,82.9200076 C256.508508,86.2022117 253.669968,90.4380292 251.607592,91.5025278 C250.410083,92.1013083 248.525115,92.2121936 247.19455,91.7686525 Z M249.811328,88.4642713 C250.121794,88.1537925 250.676196,87.2445333 251.053189,86.4239823 C253.980433,79.9704593 254.246547,79.0833772 253.514736,78.1741179 C253.248622,77.8636391 252.849453,77.6640457 252.472459,77.6640457 C251.297126,77.6640457 250.7649,78.3515344 248.946461,82.276873 C247.039317,86.4018052 246.684499,87.8211367 247.349782,88.5751566 C247.926361,89.2182912 249.123869,89.15176 249.811328,88.4642713 Z" id="Shape"></path>
                    <path d="M220.960234,86.3796282 C218.276927,85.6921395 215.970613,85.0711819 215.815381,85.0046508 C215.660148,84.9602967 216.037142,84.0732145 216.857657,82.6317059 C220.893706,75.4463402 223.820949,65.2892491 224.597112,55.6865844 C224.730169,54.2672529 224.996282,52.5374426 225.195867,51.872131 C225.705917,50.3197372 226.859074,49.1443533 228.30052,48.7673433 C229.254092,48.5233957 229.586733,48.5677499 231.272116,49.033468 C244.289482,52.670505 250.742724,54.1785447 252.139818,53.890243 C252.494635,53.8237118 252.782925,53.8015348 252.782925,53.8237118 C252.782925,53.8458889 252.494635,55.0212728 252.117642,56.4627813 C251.762824,57.8821128 251.363655,59.9224019 251.208422,61.0090776 C250.787076,64.1360423 250.343555,64.845708 248.702524,64.845708 C246.950613,64.845708 246.041393,63.8699176 244.710827,60.5433594 C244.245129,59.3236214 243.180677,58.1704145 241.983168,57.5716341 C241.184829,57.15027 238.058,56.1966567 237.54795,56.1966567 C237.060076,56.1966567 234.886819,61.2530252 233.534077,65.5110197 C232.136983,69.9020765 229.498029,82.0772795 229.498029,84.1397456 C229.498029,85.3151295 229.121035,86.4461593 228.500104,87.111471 C227.723941,87.954199 226.659489,87.8654908 220.960234,86.3796282 Z" id="Path"></path>
                    <path d="M236.816139,87.0449398 C233.112731,85.91391 231.671286,82.8312994 232.802266,78.3737114 C233.401021,75.9564124 234.975523,72.7629166 236.217384,71.3657621 C238.434993,68.9262861 241.184829,68.2609744 243.668551,69.6137748 C246.329682,71.0774604 247.105845,73.361697 246.130097,76.8656717 C245.841808,77.8636391 244.910412,79.039023 244.378186,79.039023 C243.84596,79.039023 241.251357,77.7527539 241.251357,77.5088063 C241.251357,77.3757439 241.362237,77.2205046 241.473118,77.1539734 C241.827935,76.9322028 242.53757,75.4463402 242.692803,74.581435 C243.003268,72.940333 241.295709,72.0088967 240.076024,73.1399265 C238.96722,74.160071 235.929095,80.9906039 235.929095,82.4542895 C235.929095,83.496611 236.461321,84.1397456 237.281837,84.1397456 C237.924943,84.1397456 239.011572,83.05307 239.277685,82.1216337 C239.432918,81.6559155 239.676855,81.2567285 239.832087,81.2567285 C240.009496,81.2567285 240.696955,81.5228532 241.362237,81.855509 C243.247205,82.7869453 243.291557,83.8292669 241.539646,85.7143165 C240.231257,87.111471 238.590226,87.5771891 236.816139,87.0449398 Z" id="Path"></path>
                    <path d="M207.632403,84.3615162 C207.100177,83.8292669 202.398845,82.3434042 199.449425,81.7889778 C196.167364,81.1680203 189.359304,80.1478758 186.631644,79.8817511 C185.079318,79.7486888 183.7044,79.5490953 183.571344,79.4603871 C183.393935,79.3495018 183.460463,79.039023 183.793105,78.4624196 C185.145846,75.9564124 186.165947,72.1641361 187.030814,66.3981019 C187.851329,60.8981923 188.095266,57.0615618 187.940034,52.5374426 C187.762625,48.0798546 188.050914,44.5537029 188.649669,43.356142 C189.292775,42.0476958 190.046763,41.6706858 191.865202,41.6928629 C194.082811,41.737217 204.41687,43.2674338 208.985145,44.2210471 C210.20483,44.4871718 212.289382,44.7532964 213.597772,44.8198276 C215.504916,44.9307129 215.970613,45.0194211 215.881909,45.2633687 C215.771029,45.5294934 215.504916,52.4709115 215.527092,54.4890235 C215.527092,54.9325646 215.283155,55.3761057 214.773104,55.8861779 C214.107822,56.5514896 213.886061,56.6401978 212.843785,56.6401978 C210.980993,56.6401978 209.716956,55.7309385 208.098101,53.2471084 C206.723183,51.0959341 205.237385,50.1423207 202.731487,49.7653108 C201.910971,49.6544255 201.156984,49.5435403 201.090456,49.5435403 C200.868695,49.5435403 199.449425,53.0253379 198.917199,54.7995022 C198.007979,57.9042899 197.364873,61.607858 196.899175,66.7307577 C196.411301,72.2084902 196.18954,76.20036 196.389125,76.3999535 C196.721766,76.7326094 201.156984,77.3092128 202.221437,77.1539734 C203.552002,76.9543799 203.928996,76.7326094 205.126505,75.4906943 C205.680907,74.9140909 206.412718,74.4040186 206.767535,74.3374874 C208.075925,74.0713628 209.606075,74.958445 209.872188,76.1338289 C209.938717,76.4664847 209.672603,77.9523474 209.229082,79.7043347 C208.807736,81.3454367 208.408566,83.1196011 208.319862,83.6518504 C208.164629,84.6054638 208.031573,84.7607032 207.632403,84.3615162 Z" id="Path"></path>
                    <path d="M260.367148,81.4784991 C259.3914,80.8797186 259.080935,80.1478758 259.435752,79.2829706 C260.01233,77.8858162 261.098959,77.5309833 262.540405,78.2628261 C263.804442,78.9281378 263.959675,80.3031152 262.873046,81.3897908 C262.22994,82.0329254 261.342896,82.0772795 260.367148,81.4784991 Z" id="Path"></path>
                    <path d="M113.073549,79.7708659 C113.073549,79.6599806 113.228782,78.8172525 113.406191,77.8636391 C114.31541,73.1177494 113.384014,61.2530252 111.609927,54.6442628 C110.101953,49.0778221 109.747135,47.5032512 109.614079,45.6403786 C109.347966,42.0033417 110.057601,41.3602071 114.869813,40.8057807 C119.016742,40.3400625 123.939834,39.9186985 124.028538,40.0295838 C124.095067,40.0739379 123.85113,41.2714988 123.496312,42.6686533 C122.498388,46.8157625 122.077042,50.2753831 122.210099,53.6241183 C122.298803,55.4426368 122.454036,56.8176142 122.653621,57.3055094 C123.518488,59.3236214 125.558689,60.2772347 128.995983,60.2550577 C130.126963,60.2550577 131.102711,60.2107036 131.147064,60.1441724 C131.346648,59.9445789 130.548309,54.4224923 129.794322,50.7632783 C128.796398,46.0173886 128.574637,42.2916434 129.195568,41.1162595 C129.883026,39.8078132 130.703542,39.5195115 134.11866,39.319918 C138.531702,39.0759704 143.454794,39.0759704 143.454794,39.3420951 C143.454794,39.4529804 143.210857,40.4731249 142.922568,41.6041547 C141.791588,46.0395656 141.569827,48.3903334 141.569827,56.4184272 C141.592003,63.2933142 141.636355,64.1582193 142.190757,68.0392039 C143.099977,74.4261957 142.96692,76.4886618 141.547651,77.397921 C141.059777,77.7305768 140.239261,77.8414621 137.156784,77.9745244 C135.072232,78.0410556 132.632862,78.196295 131.723642,78.2628261 C130.193492,78.4180655 130.104787,78.3958885 130.237844,77.9967015 C130.947479,76.2225371 131.657114,69.6359518 131.28012,68.2387974 C130.725718,66.2206854 129.461681,65.4666656 126.379204,65.3557803 C125.226047,65.3114262 124.139419,65.3557803 123.984186,65.4666656 C123.673721,65.666259 123.718073,65.9545608 124.738173,70.500857 C125.447808,73.7165299 125.558689,76.57737 125.004286,77.6196915 C124.516412,78.5067737 123.429784,78.9503148 121.167823,79.1277313 C118.417987,79.3716789 117.087422,79.5047412 115.512919,79.7265117 C113.738832,79.9704593 113.073549,79.9704593 113.073549,79.7708659 Z" id="Path"></path>
                    <path d="M175.077901,79.6599806 C173.104229,78.5289508 165.054307,77.7083998 155.607293,77.7083998 C152.946162,77.7083998 150.772905,77.6640457 150.772905,77.5975145 C150.772905,77.5531604 150.972489,76.998734 151.216426,76.3999535 C151.881709,74.6923203 152.50264,71.2770539 152.768753,67.8396104 C153.12357,63.3376683 153.079218,55.930532 152.680048,52.7592132 C151.659948,44.7532964 151.59342,43.9327454 151.837357,42.3803516 C152.325231,39.2533869 152.813105,39.0094393 158.645417,39.0759704 C161.084787,39.1203245 164.677314,39.2533869 166.62881,39.3642721 C168.580306,39.4973345 172.217185,39.6303968 174.723083,39.696928 L179.269182,39.8078132 L179.424415,42.6908303 C179.490943,44.2875783 179.668352,46.4165755 179.823584,47.414543 C180.045345,48.9669368 180.023169,49.3661238 179.757056,50.0536125 C179.113949,51.5394752 177.450743,52.0939016 175.654479,51.4285899 C174.878316,51.1181111 174.057801,50.4527995 172.505474,48.8782286 C170.021752,46.3500444 169.134708,45.9286803 166.51793,46.0395656 L164.921251,46.1060968 L164.499905,47.4367201 C163.014107,52.1604327 162.614937,56.9284995 162.947579,66.2428625 C163.080635,70.0351388 163.235868,73.1621035 163.28022,73.2064577 C163.324572,73.2508118 164.632962,73.2951659 166.207464,73.3173429 C169.644758,73.3838741 170.775739,73.0068642 171.707135,71.5431785 C172.838116,69.7246601 174.257385,69.2589419 175.743184,70.1903782 C176.807636,70.8335128 177.007221,71.7649491 176.608051,74.137894 C176.430642,75.1802155 176.208881,76.8878487 176.120177,77.9079933 C176.009297,78.9281378 175.854064,79.81522 175.721007,79.837397 C175.610127,79.8817511 175.299662,79.7930429 175.077901,79.6599806 Z" id="Path"></path>
                    <path d="M202.265789,69.5694207 C201.777915,69.2145878 200.513878,68.1279121 199.471601,67.1077676 C198.030155,65.7106132 197.564458,65.1340097 197.564458,64.6904686 C197.564458,63.6481471 198.052332,61.3195563 198.296269,61.0977858 C198.806319,60.6985988 204.505574,58.6361327 205.126505,58.6361327 C205.459146,58.6361327 206.013548,58.8800803 206.368366,59.168382 C206.96712,59.6784543 206.989296,59.7893395 206.944944,61.5635039 C206.878416,64.6017604 205.703083,69.2145878 204.816039,69.8355453 C204.106405,70.3234405 203.285889,70.2347323 202.265789,69.5694207 Z" id="Path"></path>
                    <path d="M168.513778,65.7106132 C167.316269,64.9787704 164.721666,63.0715436 163.923327,62.3175238 C163.124988,61.607858 163.058459,61.0756087 163.324572,58.7248409 L163.457629,57.5938111 L166.73969,55.9748861 C169.733463,54.4890235 170.08828,54.3559611 170.753563,54.5555546 C171.90672,54.8660334 172.283713,55.8418238 172.283713,58.4365392 C172.283713,60.8760152 171.729311,64.4686981 171.219261,65.3336032 C170.664859,66.2872166 169.689111,66.4202789 168.513778,65.7106132 Z" id="Path"></path>
                    <path d="M83.6458758,18.2073619 C85.5973718,17.1206862 85.3090827,16.6549681 83.0249452,17.2537486 C82.4261908,17.431165 81.8274363,17.4755191 81.7387319,17.3868109 C81.6278515,17.2981027 81.1843296,17.3202797 80.7408078,17.431165 C80.2751099,17.5642273 79.4324184,17.6751126 78.8114879,17.7194667 C78.2127334,17.7416438 77.5030985,17.830352 77.2591615,17.9190602 C76.9708723,18.0299455 77.0152245,17.9634143 77.3700419,17.7416438 C78.6562552,16.9432698 83.7345802,15.1247513 87.0166417,14.2820232 C88.9681377,13.771951 90.8752816,13.2840558 91.2300991,13.1731705 C93.8468779,12.3304424 107.573878,9.82443524 109.525375,9.82443524 C110.190657,9.82443524 111.898216,9.62484175 113.29531,9.4030712 C114.692404,9.1591236 116.422139,8.98170716 117.109598,8.98170716 C117.819233,8.98170716 118.462339,8.93735305 118.57322,8.87082189 C118.839333,8.71558251 124.782525,8.11680203 127.82065,7.96156265 C131.28012,7.78414621 145.29541,7.76196915 148.444415,7.93938559 C149.797157,8.00591676 151.926061,8.13897908 153.212275,8.20551025 C154.498488,8.27204141 156.139519,8.36074963 156.87133,8.40510374 C157.603141,8.47163491 159.598989,8.60469723 161.306548,8.73775956 C163.014107,8.87082189 164.921251,9.00388422 165.520005,9.07041538 C173.94692,9.89096641 176.408466,10.1570911 179.025245,10.534101 C181.77508,10.933288 186.165947,11.3990061 190.468108,11.731662 C193.594937,11.9977866 194.548509,12.1308489 195.213792,12.3969736 C195.590785,12.552213 196.854823,12.9070459 198.007979,13.1731705 C199.161136,13.4392952 200.314293,13.794128 200.580406,13.9493674 C200.824343,14.1046068 201.57833,14.3042003 202.243613,14.3707315 C202.908896,14.4594397 203.951172,14.570325 204.549926,14.6368561 C205.170857,14.7255643 206.257485,15.0582202 206.989296,15.413053 C209.051673,16.3888434 213.996941,17.3868109 218.631744,17.7638208 C220.228423,17.8747061 220.561064,17.9412373 219.940134,18.0521225 C219.518788,18.1408308 217.12377,17.9634143 214.617872,17.6751126 C209.894364,17.1428633 208.208981,16.9654469 197.786218,15.8344171 C187.651745,14.7477414 178.537371,13.8828363 172.948996,13.5058263 C171.795839,13.4392952 168.9573,13.2397017 166.62881,13.0622852 C157.935782,12.4191506 150.373735,12.2195572 139.795739,12.3526195 C134.074308,12.4413277 128.973807,12.552213 128.485933,12.6187441 C127.998059,12.6630982 126.046563,12.8183376 124.161595,12.9514 C120.302955,13.2175246 112.27521,14.1046068 109.081853,14.6146791 C103.626534,15.4574071 100.987579,15.8787712 95.4435564,16.8323845 C92.1614949,17.408988 89.0568421,17.8747061 88.5689681,17.8747061 C88.0810941,17.8747061 86.595296,18.1186537 85.2647305,18.4069554 C83.934165,18.6952571 82.736656,18.9392047 82.6035995,18.9392047 C82.4705429,18.9392047 82.9362409,18.6065489 83.6458758,18.2073619 Z" id="Path"></path>
                    <path d="M220.627593,10.3788616 C202.48755,7.65108388 182.129898,5.6329719 165.431301,4.9454832 C159.332876,4.7015356 143.942668,4.76806677 125.447808,5.10072259 C121.345231,5.18943081 117.797057,5.16725375 117.575296,5.07854553 C117.353535,4.98983731 116.111674,4.92330615 114.803284,4.96766026 C113.472719,4.98983731 112.408266,4.9454832 112.408266,4.90112909 C112.408266,4.83459793 112.918316,4.61282738 113.517071,4.41323389 C114.138002,4.2136404 114.625876,3.94751574 114.625876,3.83663047 C114.625876,3.72574519 114.625876,3.57050581 114.625876,3.50397465 C114.625876,3.41526643 114.093649,3.32655821 113.472719,3.2822041 C111.343814,3.14914177 109.747135,2.92737122 109.747135,2.77213184 C109.747135,2.70560068 109.32579,2.66124657 108.81574,2.70560068 C107.241237,2.86084006 107.973048,2.57253835 110.434594,2.08464314 C112.607851,1.64110205 119.260679,0.975790408 124.715997,0.643134587 C126.068739,0.554426368 127.554537,0.443541095 128.042411,0.399186985 C129.328624,0.288301711 144.164429,0 149.109698,0 C151.438187,0 154.831129,0.0665311642 156.649569,0.177416438 C158.490184,0.266124657 161.018259,0.37700993 162.304472,0.443541095 C164.743842,0.554426368 170.199161,0.931436299 171.729311,1.08667568 C172.217185,1.13102979 173.32599,1.24191506 174.168681,1.30844623 C179.091773,1.72981027 187.208223,2.66124657 191.466032,3.30438115 C195.036383,3.85880752 199.449425,4.36887978 202.842367,4.63500444 C203.840291,4.72371266 205.0378,4.96766026 205.503498,5.18943081 C205.94702,5.41120135 206.96712,5.74385717 207.76546,5.94345067 C208.563799,6.14304416 209.428666,6.45352293 209.69478,6.63093936 C209.960893,6.83053286 210.958817,7.07448046 211.912389,7.20754279 C213.575596,7.42931333 214.019117,7.58455272 215.793205,8.51598902 C216.990714,9.13694655 220.405832,10.0018517 223.443956,10.4010387 C224.885402,10.6006322 226.105087,10.8224027 226.149439,10.8667568 C226.3712,11.0885274 223.798773,10.8667568 220.627593,10.3788616 Z" id="Path"></path>
                </g>
            </g>
        </g>
    </g>
</svg>