<?xml version="1.0" encoding="UTF-8"?>
<svg width="192px" height="192px" viewBox="0 0 192 192" version="1.1" xmlns="http://www.w3.org/2000/svg" xmlns:xlink="http://www.w3.org/1999/xlink">
    <title>icon-192</title>
    <defs>
        <linearGradient x1="0%" y1="0%" x2="100%" y2="100%" id="linearGradient-1">
            <stop stop-color="#FFA100" offset="0%"></stop>
            <stop stop-color="#ED633A" offset="100%"></stop>
        </linearGradient>
    </defs>
    <g id="Page-1" stroke="none" stroke-width="1" fill="none" fill-rule="evenodd">
        <g id="icon-192" fill-rule="nonzero">
            <rect id="Rectangle" fill="url(#linearGradient-1)" x="0" y="0" width="192" height="192" rx="32"></rect>
            <g id="logo-sello" transform="translate(34, 46)" fill="#FFFFFF">
                <g id="Group" transform="translate(62.5, 50) scale(-1, 1) rotate(-180) translate(-62.5, -50)translate(0, 0)">
                    <path d="M41.7422746,99.9876144 C41.7241569,99.9603475 40.9179183,99.9239917 39.9486202,99.8876358 C30.3643453,99.5604334 23.0991389,97.5790408 17.1837028,93.6798783 C15.3175774,92.4528691 14.0855723,91.3531054 13.0800388,90.0170287 C12.8354495,89.6898262 12.3281533,89.0990441 11.95674,88.69913 C10.8877944,87.5720993 10.3895571,86.2996453 10.52544,85.0908141 C10.588852,84.6000104 11.0236774,83.6184031 11.3588552,83.218489 C11.4766204,83.0730657 11.6668565,82.7367743 11.7665039,82.4641055 C11.8752103,82.1914368 12.1832115,81.6460994 12.4459185,81.2461853 C13.2068628,80.1009768 14.2576907,79.1920811 15.9607565,78.2104737 C16.8122895,77.7196701 18.5062964,76.9289308 18.7146502,76.9289308 C18.7690034,76.9289308 19.249123,76.7653296 19.7926547,76.5653725 C22.0392522,75.7200996 25.0377351,74.9475382 29.0689282,74.1658879 C30.4911694,73.8841303 31.9405871,73.6205505 32.2848238,73.5660168 C32.6381194,73.511483 33.6708296,73.3478818 34.5948334,73.1933696 C37.2400207,72.7570996 43.3819284,72.0208941 43.6808708,72.0936058 C43.7171063,72.1026947 44.6682867,72.0299831 45.8097031,71.929997 C49.2430114,71.6391579 50.6924292,71.5573573 54.7507988,71.4664678 C60.7115293,71.3392224 65.9022566,71.5391794 72.4608719,72.1572285 C74.1277023,72.3208297 74.535351,72.3662745 78.2585428,72.8389002 C79.8257258,73.0388573 82.1357353,73.302437 83.3767992,73.4296824 C85.4331606,73.6387284 90.2434158,74.2476886 90.5785936,74.3385781 C90.6510642,74.356756 90.859418,74.3931119 91.0315364,74.4203787 C94.89967,74.992983 99.7552194,76.047302 103.17041,77.0561762 C107.645487,78.374075 111.04256,79.8737528 113.117039,81.4552313 C113.959513,82.1005473 115.010341,83.2094 115.327401,83.8001822 C116.84929,86.6086699 115.345519,89.944317 111.83974,91.5530624 C111.531739,91.6984857 110.979148,91.9166207 110.616794,92.052955 C109.411965,92.480136 103.677706,94.1797709 101.983699,94.6069519 C101.467344,94.7341973 100.733576,94.9159764 100.362163,95.015955 C98.8855688,95.3976912 95.6606143,96.0975408 94.5191978,96.2884089 C94.2746086,96.3338537 93.595194,96.4520101 93.0154269,96.5519887 C92.4356598,96.6519672 91.8105984,96.7610347 91.6113035,96.7883016 C91.4210674,96.8064795 91.058713,96.8701022 90.8050649,96.9155469 C90.5604759,96.9700807 90.1528272,97.0337034 89.8991791,97.0609703 C89.6545898,97.0882371 89.2016468,97.1518598 88.9027044,97.1973046 C87.036579,97.4790623 82.7517378,97.9698659 80.5685524,98.1516451 C80.2243156,98.178912 79.5086656,98.2334457 78.9832517,98.2879794 C77.0718321,98.4515807 72.3793421,98.7242494 71.020513,98.7424273 C70.4498047,98.7424273 69.9515674,98.7696941 69.9243908,98.7878721 C69.8881554,98.8151389 67.6596756,98.8424058 64.9782528,98.8605837 C59.9596438,98.8969395 56.1005691,98.8333168 53.1654982,98.6515377 C52.0421994,98.587915 51.1906665,98.587915 50.5837228,98.6424488 C50.0854855,98.6878935 49.2520703,98.7515162 48.7266563,98.7878721 C47.3044152,98.8605837 46.6431183,98.9332954 46.6431183,99.0241849 C46.6431183,99.0605408 46.534412,99.1150745 46.3985291,99.1332524 C46.2535873,99.1514303 46.7155892,99.1786972 47.4131215,99.1877862 C48.1106538,99.1968751 49.1886583,99.215053 49.8137197,99.2423199 C51.6526684,99.3059426 55.5479786,99.4695438 57.1061027,99.5422555 L58.5555204,99.6149671 L57.4684571,99.642234 C56.8705723,99.651323 56.236452,99.6785898 56.0643337,99.6967677 C55.8922153,99.7058567 54.7870343,99.7513015 53.6184412,99.7876573 C52.4498482,99.8240131 51.3718437,99.8694579 51.2178431,99.8967248 C50.8736064,99.9421696 41.7966278,100.033059 41.7422746,99.9876144 Z M48.9078336,98.4788475 C48.8353627,98.4334027 48.165007,98.3516021 47.4131215,98.2970684 C44.9944057,98.1152893 42.8021613,97.8789764 38.3089663,97.333639 C37.221903,97.1973046 33.6617707,96.6337893 32.5112954,96.4156543 C32.0855289,96.3338537 31.623527,96.2520531 31.4695264,96.2247862 C30.8625827,96.1429856 27.0850377,95.2977126 25.4453839,94.8887096 C24.7025573,94.6978415 23.0719623,94.2433936 22.0754876,93.9343691 C21.5863091,93.7889458 21.1877193,93.6889673 21.1877193,93.7071452 C21.1877193,93.8980133 23.8600832,95.0704887 25.762444,95.7067157 C29.7755194,97.0427923 33.5349466,97.7335531 39.2329701,98.169823 C40.3743866,98.2516236 41.2440373,98.3516021 41.1806252,98.3970469 C41.0719189,98.4697586 42.6028664,98.5061144 46.733707,98.5333813 C48.0381829,98.5515592 48.9803045,98.5242923 48.9078336,98.4788475 Z M62.813185,97.1518598 C63.854954,96.8519243 64.6702515,96.3792985 65.3949604,95.6521819 C66.137787,94.9068875 66.4910825,94.3342832 66.7084952,93.5162771 C66.9530844,92.5437587 66.8262604,91.9711544 66.3008465,91.6984857 C65.7573148,91.4167281 64.833311,91.6166851 64.5977806,92.0802219 C64.5524863,92.1711115 64.4890743,92.4528691 64.4528388,92.7164489 C64.3713091,93.3708538 64.181073,93.7798568 63.7553066,94.2433936 C62.8856559,95.1886451 62.1971825,95.3795132 59.7331723,95.3795132 C56.5082178,95.3795132 54.6602102,95.015955 52.4951425,93.9798139 C48.817245,92.2074673 46.5162943,89.117222 46.1811164,85.5179951 C46.1267633,84.9726576 46.0361747,84.4364092 45.9637038,84.3273417 C45.6466436,83.836538 44.713581,83.7092926 44.2062848,84.0910288 C43.798636,84.3909644 43.7261651,84.6272773 43.7895772,85.4634613 C44.0432253,89.2081115 46.1720576,92.5528477 49.7865431,94.8614427 C51.6254918,96.0430071 54.0804431,96.906458 56.5172767,97.2427494 C57.9123413,97.4245285 62.0612996,97.3699948 62.813185,97.1518598 Z M60.0049381,94.3342832 C61.8710635,93.8525685 63.1483629,92.5710256 63.3657755,90.9441023 C63.4744819,90.1170072 63.0305977,89.6534704 62.1247116,89.6534704 C61.7170629,89.6534704 61.6264742,89.6898262 61.3547084,89.962495 C61.1372958,90.1806299 61.0467071,90.3533201 61.0467071,90.5532771 C61.0467071,91.1895041 60.5847052,91.8711759 59.9143495,92.2256452 C59.1352875,92.6255593 57.0879849,92.5074029 55.4302134,91.9620655 C53.8358539,91.425817 52.6853786,90.7168784 51.616433,89.5989367 C50.3572513,88.271949 49.8046608,87.0994735 49.6325424,85.3907497 C49.5781893,84.899946 49.4785418,84.4364092 49.3970121,84.3091638 C49.0890108,83.836538 48.2012424,83.7092926 47.6758285,84.063762 C47.1594734,84.4000534 47.1051203,84.9908356 47.4312392,86.5632251 C48.228419,90.4442097 51.9787874,93.6071667 56.6531596,94.3251942 C57.7764584,94.4978844 59.3436413,94.5069734 60.0049381,94.3342832 Z M77.5610105,92.3074458 C79.5086656,91.8802649 81.4834973,90.9804581 82.742679,89.953406 C84.826217,88.2446821 86.0310455,86.1814889 86.320929,83.836538 C86.384341,83.3002896 86.4115176,81.9823908 86.3933999,80.3645565 L86.3662233,77.7651149 L86.1488107,77.528802 C85.668691,77.0107314 84.7718638,77.0016425 84.3098619,77.4924461 L84.0562138,77.7651149 L84.0562138,80.2827559 C84.0562138,83.2912006 83.974684,84.1273847 83.5760942,85.1907926 C82.8151499,87.2358079 80.9309068,89.0263324 78.639015,89.8897833 C77.334539,90.380587 76.6732422,90.4805655 74.6621751,90.5350992 C72.6873434,90.589633 71.2922788,90.4896545 69.8338022,90.1988078 C63.9998958,89.0172434 59.9324673,84.7999675 58.3381077,78.2831854 C58.0029299,76.9107529 57.9214001,76.3745045 57.7130463,74.4840014 L57.6496343,73.8932192 L56.6531596,73.9204861 C55.2128007,73.947753 55.3033893,73.8841303 55.3758602,74.8657376 C55.7382147,79.6465289 57.2691622,83.6820258 59.8599964,86.7177374 C62.4145951,89.6989152 66.3733173,91.7621084 70.630982,92.3347127 C72.1528706,92.5437587 72.1981649,92.5437587 74.4991156,92.5164918 C76.3199466,92.4983139 76.8181839,92.4619581 77.5610105,92.3074458 Z M59.4342299,91.4167281 C59.687878,91.2803937 59.9596438,90.8713906 59.9596438,90.6078109 C59.9596438,90.3351422 59.6969369,89.962495 59.3979945,89.8079827 C59.234935,89.7261821 58.6914033,89.6171146 58.1841071,89.5625809 C55.3668014,89.2808232 53.3376165,87.5630103 53.0749096,85.2089705 C52.9752621,84.3546086 52.8212615,84.1001178 52.2777298,83.9183386 C51.6617273,83.7092926 50.9823127,83.9819613 50.7558412,84.5182098 C50.6561937,84.7727006 50.6471349,84.9635687 50.7286646,85.527084 C50.9189007,86.9267834 51.4714912,88.0265471 52.4860836,89.0626882 C53.8811482,90.4987434 55.7019792,91.3440164 57.8308115,91.5621514 C58.646109,91.643952 59.0718755,91.6075961 59.4342299,91.4167281 Z M75.5861789,89.4807802 C77.207715,89.1444888 78.575603,88.4628171 79.6898428,87.426676 C81.112084,86.0996883 81.7914986,84.5454767 81.7914986,82.6004399 C81.7914986,81.736989 81.7733809,81.6460994 81.5559682,81.3916086 C81.0939663,80.8280933 80.133727,80.8280933 79.6717251,81.3916086 C79.4633713,81.6370105 79.4361947,81.746078 79.4361947,82.4277497 C79.4361947,83.9910503 79.0466637,84.9817466 78.0230124,85.9906208 C77.533834,86.4814245 77.1895972,86.7268263 76.6098301,86.999495 C75.3959428,87.5902772 74.8071168,87.6902557 72.9772269,87.626633 C69.9696851,87.5266545 67.8227351,86.7631821 65.7844914,85.0908141 C63.2389515,83.009443 61.5630622,79.1375473 61.1825901,74.4840014 L61.119178,73.7205291 L60.5122344,73.7841518 C60.1861154,73.8114186 59.6516426,73.8386855 59.3345824,73.8386855 L58.7548153,73.8386855 L58.8182274,74.7203143 C59.0175223,77.4197345 59.6697603,79.9010197 60.7387059,82.0641914 C62.8222439,86.2723785 66.4548471,88.8718201 71.1835725,89.5171361 C72.5333427,89.6989152 74.6078219,89.6807373 75.5861789,89.4807802 Z M59.1534052,88.6536852 C59.9234084,88.4355502 60.1679976,87.635722 59.6335249,87.0994735 C59.3979945,86.8631607 59.2530527,86.8086269 58.709521,86.7450042 C57.9214001,86.6450257 57.4684571,86.4632466 57.0789261,86.0815104 C56.6893951,85.7088631 56.5172767,85.3725717 56.5172767,84.9999245 C56.5172767,84.3909644 55.9375096,83.836538 55.2943305,83.836538 C54.9319761,83.836538 54.4609153,84.0728509 54.2978558,84.3273417 C53.8086773,85.0635472 54.4699741,86.7722711 55.5660963,87.6538999 C56.562571,88.4446392 58.2203426,88.908176 59.1534052,88.6536852 Z M75.0607649,86.5450472 C76.3380643,86.0724214 77.1714795,85.0362803 77.1714795,83.9092497 C77.1714795,83.1639552 76.2384169,82.6731516 75.4774725,83.0185319 C75.0335884,83.218489 74.8977054,83.3820902 74.8433523,83.836538 C74.7799402,84.2818969 74.4175858,84.6909 74.0189959,84.7727006 C73.6294649,84.8545012 71.7271041,84.681811 71.0748661,84.5091208 C68.4477965,83.836538 66.7537895,82.2732375 65.6304908,79.5101946 C65.1866066,78.4195197 64.7427224,76.2472591 64.6158983,74.5476241 L64.5615452,73.7477959 L63.3929521,73.7477959 L62.2243591,73.7477959 L62.2243591,74.1386211 C62.2243591,74.8021149 62.4961249,76.7471517 62.7316553,77.8378265 C63.5831882,81.6733663 65.5399021,84.3546086 68.5112085,85.745219 C70.4860402,86.6813815 73.6566415,87.0631177 75.0607649,86.5450472 Z M56.1005691,82.6549736 C56.4810413,82.3186822 56.562571,82.0278356 56.3904527,81.6188326 C56.1186868,80.9644277 56.2636286,80.9826056 50.4931342,80.9189829 C45.6828791,80.8644491 45.2842892,80.8553602 44.6048746,80.68267 C43.082986,80.2827559 41.8600398,79.7646854 40.7639176,79.0375688 C40.0935619,78.5922099 38.8615568,77.4015566 38.4448492,76.7925965 L38.1096714,76.3108818 L37.0588435,76.5835505 C36.4700176,76.7380627 35.9627214,76.892575 35.9264859,76.9198419 C35.663779,77.1652437 38.0009651,79.7192406 39.2510879,80.5645136 C40.0754442,81.1189399 41.6698037,81.8915013 42.6662784,82.2277927 C43.282281,82.4368387 44.7588753,82.7640411 45.5107607,82.8640197 C45.6647614,82.8821976 48.0291241,82.9094644 50.7830178,82.9185534 L55.783509,82.9276423 L56.1005691,82.6549736 Z M75.4955903,82.6731516 C77.5066574,82.2187037 79.5177245,81.3461639 80.8403182,80.3645565 C81.7099688,79.7192406 83.1231511,78.2831854 83.585153,77.5651578 C84.0380961,76.883486 84.6450398,75.6746548 84.5816277,75.6110321 C84.5363334,75.5564983 82.6430315,75.202029 82.41656,75.202029 C82.3440891,75.202029 82.1900885,75.3928971 82.0723233,75.638299 C81.0667897,77.7014922 78.8836042,79.5101946 76.4014763,80.3191117 C74.8977054,80.8099154 74.5262921,80.8644491 72.1438117,80.9189829 C69.7703902,80.9735166 69.5982718,81.0098725 69.2721528,81.4188755 C69.1815642,81.518854 69.1090933,81.7642559 69.1090933,81.9642129 C69.1090933,82.2368816 69.1725054,82.373216 69.4261535,82.6277068 L69.7432136,82.9458203 L72.2162826,82.9003755 C74.2454675,82.8640197 74.8252346,82.8185749 75.4955903,82.6731516 Z M54.9138583,79.8101301 C55.4755077,79.3829492 55.45739,78.6558326 54.868564,78.2922744 C54.5786805,78.1195842 54.4065621,78.1104952 50.900783,78.1104952 C47.0235905,78.1104952 45.9908804,78.0468725 44.9672291,77.737848 C43.8258126,77.3924676 42.4669835,76.5835505 41.8600398,75.8927897 L41.5792151,75.5655873 L40.4196809,75.8019002 C39.7855607,75.9291456 39.242029,76.047302 39.2329701,76.0654799 C39.178617,76.1200137 39.9123847,77.0561762 40.2656803,77.3924676 C41.8509809,78.8739676 43.9164012,79.7828633 46.1629987,80.0100872 C46.6068829,80.055532 48.6723032,80.0827989 50.7739589,80.0737099 L54.5877393,80.0646209 L54.9138583,79.8101301 Z M73.4754643,80.0191762 C76.7547719,79.7010627 79.5267834,78.0650504 80.8856125,75.62921 C81.0939663,75.2565628 81.1573783,75.0747836 81.0758486,75.0293388 C81.0214954,74.992983 80.5413758,74.9111824 79.9978441,74.8475597 C79.4633713,74.783937 78.9832517,74.7203143 78.9198397,74.7021364 C78.8654865,74.6839585 78.7114859,74.8384707 78.5846618,75.0475168 C78.0683067,75.9018787 77.0446555,76.7835075 75.9485333,77.3015781 C74.5262921,77.9832498 73.6022883,78.1104952 70.1146269,78.1104952 C67.695911,78.1104952 67.5237927,78.1195842 67.2520269,78.2922744 C66.5092003,78.7467222 66.6632009,79.6647068 67.5237927,79.9737314 C67.9676769,80.1282436 71.9716934,80.1645995 73.4754643,80.0191762 Z M53.4100874,77.101621 C53.5459703,77.0561762 53.7724419,76.901664 53.9173836,76.7653296 C54.3340912,76.3745045 54.216326,75.6655658 53.6818533,75.3656302 C53.5369115,75.2747407 52.5313779,75.2383848 49.9043083,75.202029 C47.2047677,75.1565842 46.2535873,75.1202284 46.0180569,75.0202499 C45.7462911,74.9202714 45.5288785,74.9293603 44.2696968,75.1202284 C43.4815759,75.2383848 42.8383968,75.3565413 42.8383968,75.3928971 C42.8383968,75.5564983 43.6899297,76.1654584 44.4236974,76.5290167 C45.6557025,77.1288879 46.1267633,77.1834216 49.922426,77.1925106 C52.005964,77.2015995 53.2470279,77.1652437 53.4100874,77.101621 Z M74.3632326,76.9380198 C75.4140605,76.6199063 76.229358,76.1472805 76.9721846,75.420164 C77.3254802,75.0656947 77.6244226,74.7294033 77.6244226,74.6748695 C77.6244226,74.5476241 77.3888922,74.5021793 76.1115928,74.3840229 L74.9973529,74.2749554 L74.7255871,74.5021793 C74.5806453,74.6294247 74.2182909,74.8293818 73.9374662,74.9475382 C73.43017,75.1474953 73.3033459,75.1565842 69.8790965,75.202029 C66.1649635,75.2474738 66.1015515,75.2565628 65.811668,75.6746548 C65.6214319,75.9473235 65.6304908,76.5017499 65.8297857,76.7380627 C66.2193167,77.2106885 66.2555522,77.2106885 70.105568,77.1743327 C73.5026409,77.1470658 73.7200535,77.1379768 74.3632326,76.9380198 Z" id="Shape"></path>
                    <path d="M6.50330581,85.6088846 C6.34024631,85.3816607 6.17718681,85.1998816 6.13189251,85.1998816 C6.00506846,85.1998816 4.75494566,82.4550166 3.93058932,80.3372896 C0.995518389,72.8025444 -0.45389935,63.3409403 0.125867746,55.4789926 C0.805282313,46.2718794 2.87976145,38.6644225 6.92907227,30.6206956 C9.00355141,26.4852203 11.1957957,23.1495731 13.5601584,20.5319535 C14.366397,19.6321468 16.2053458,17.8598002 16.2053458,17.9779567 C16.2053458,18.0052235 16.1147572,18.1779137 16.0151097,18.3687818 C15.8701679,18.6232726 16.0694629,18.4596714 16.7579363,17.7507327 C17.6547635,16.8236591 18.6965325,15.9602082 18.7871211,16.0510978 C18.8142977,16.0783647 18.6874737,16.4146561 18.5153553,16.7963923 C18.2254718,17.4417082 18.207354,17.5144199 18.3341781,17.696199 C18.4519433,17.8688892 18.4519433,17.905245 18.3070015,18.0688462 C18.1530009,18.2597143 18.1530009,18.2597143 18.3522958,18.0870241 C18.4610021,17.9961346 18.5425319,17.8779781 18.533473,17.8143554 C18.5244142,17.7598217 18.5697085,17.7234659 18.6331205,17.7416438 C18.6874737,17.7507327 18.732768,17.7325548 18.7237091,17.696199 C18.6874737,17.5962205 19.2944173,16.850926 19.4121825,16.850926 C19.4574768,16.850926 19.3397116,17.0236162 19.1494756,17.2417512 C18.9501806,17.4507972 19.0407692,17.3780855 19.3578294,17.0781499 C19.6658306,16.7782144 19.9194787,16.5782573 19.9194787,16.632791 C19.9194787,16.6782358 19.8741844,16.7691254 19.8107724,16.8327481 C19.575242,17.069061 20.1368914,16.850926 20.4086572,16.5964352 C20.9884243,16.0601868 21.3870142,15.9238524 21.1786604,16.3419444 C21.1243072,16.441923 21.3870142,16.223788 21.7674864,15.8511408 C22.1479585,15.4784935 22.4559598,15.2058248 22.4559598,15.2421806 C22.4559598,15.6057389 20.8525414,17.7870886 19.3759471,19.4412787 C17.4645274,21.5862725 15.6799318,23.9130455 14.0131014,26.4397755 C13.0347445,27.9303644 12.1288584,29.3936865 12.1288584,29.502754 C12.1288584,29.5481987 12.020152,29.6209104 11.893328,29.6663552 C11.6668565,29.7572447 11.4585027,30.1389809 10.5616754,32.1385514 C10.4348514,32.4203091 10.2536742,32.7202447 10.1540267,32.8202232 C10.0634381,32.9111128 9.80978999,33.4382723 9.59237733,33.9836097 C9.12131657,35.1924409 8.98543369,35.5196434 8.1248419,37.6191924 C7.75342861,38.5189992 7.33672101,39.5733181 7.19177923,39.9641433 C7.05589632,40.3458795 6.91095455,40.663993 6.86566024,40.663993 C6.78413049,40.663993 6.51236467,41.5274439 6.09565707,43.0725665 C5.96883301,43.5633702 5.80577352,44.0541739 5.74236149,44.1632414 C5.67894947,44.2632199 5.59741972,44.4904438 5.56118427,44.663134 C5.53400769,44.8358242 5.34377161,45.5720297 5.15353553,46.2991462 C3.72223552,51.607097 3.13340956,56.4333331 3.1243507,62.8864925 C3.11529184,65.8949372 3.13340956,66.2584955 3.32364564,67.3400813 C3.5410583,68.5943574 3.90341273,70.3121702 4.10270767,71.0756426 C4.19329628,71.4028451 4.20235514,71.5846242 4.12988426,71.7027806 C4.07553109,71.8118481 4.05741337,72.4298972 4.09364881,73.4478603 C4.13894312,74.7384922 4.12988426,75.0384278 4.03023679,75.0747836 C3.88529501,75.1293174 3.90341273,75.211118 4.38353236,76.7925965 C4.67341591,77.728759 4.70965135,77.9196271 4.61906274,78.165029 C4.36541464,78.8557897 4.57376844,80.5008909 5.10824123,82.155081 C5.39812478,83.0276209 5.45247794,83.1639552 6.2496577,84.7727006 C6.59389442,85.4543724 6.85660138,86.0178877 6.83848366,86.0178877 C6.81130708,86.0178877 6.6663653,85.8361085 6.50330581,85.6088846 Z" id="Path"></path>
                    <path d="M116.76776,83.5184245 C116.76776,83.3184675 116.794937,83.009443 116.840231,82.8367528 C117.102938,81.8097007 117.592117,80.1555105 117.80047,79.6101731 C119.086829,76.2109032 120.246363,71.2392438 120.617776,67.5491273 C120.654011,67.1764801 120.717424,66.9492562 120.771777,66.9583452 C120.916718,66.985612 120.998248,66.2494065 121.007307,64.7860845 C121.016366,64.0862348 121.052601,63.4772747 121.097896,63.4227409 C121.152249,63.3772962 121.152249,62.7047133 121.106955,61.7049281 C121.06166,60.8051214 121.016366,58.7601061 121.016366,57.1604497 C121.007307,55.1699681 120.962013,53.8702473 120.871424,53.0340633 C120.789894,52.3705694 120.753659,51.7343424 120.780836,51.6343639 C120.808012,51.5252964 120.771777,51.0163148 120.699306,50.4891553 C120.626835,49.9529069 120.50907,48.8531431 120.42754,48.026048 C120.092362,44.5449775 119.521654,40.8003273 118.76071,37.0193213 C118.51612,35.8014011 118.126589,33.8654532 117.891059,32.7111557 C117.655529,31.5659472 117.302233,30.1117141 117.102938,29.484576 C116.713407,28.2666558 115.907168,26.2216405 115.535755,25.494524 C115.372696,25.1673215 115.327401,24.9673645 115.372696,24.7310516 C115.399872,24.5220056 115.309284,23.9766682 115.073753,23.0768615 C114.792928,21.9680087 114.756693,21.704429 114.847282,21.5590057 C114.93787,21.4044934 114.865399,21.2318032 114.249397,20.232018 C113.606218,19.177699 113.542806,19.0231867 113.479394,18.4414935 C113.397864,17.696199 113.017392,16.860015 112.319859,15.8965855 C111.477385,14.742288 110.526205,13.897015 108.949963,12.8972298 C108.560432,12.6518279 108.26149,12.4427819 108.279608,12.424604 C108.288666,12.4064261 108.487961,12.4791378 108.705374,12.5791163 C108.922787,12.6790948 109.185494,12.7608954 109.276082,12.7608954 C109.511613,12.7608954 110.888559,13.8152144 111.885034,14.7604659 C115.209636,17.8779781 117.664587,22.2497664 119.79342,28.8483491 C121.324367,33.5836956 122.076253,36.6012293 123.317317,43.1180113 C124.051084,46.9444622 124.685205,52.034278 124.911676,55.9697963 C125.029441,58.0420785 125.029441,62.7592471 124.911676,64.7769955 C124.739558,67.7218175 124.304732,70.775707 123.761201,72.9752346 C123.199551,75.2474738 122.909668,76.0927468 122.003782,78.146851 C121.62331,79.0103019 121.605192,79.0284799 121.559898,78.7376332 C121.514603,78.4467866 121.478368,78.5013204 121.125072,79.428394 C120.726482,80.4463571 120.047068,81.7279 119.884008,81.7733448 C119.829655,81.7824338 119.811537,81.5006761 119.820596,81.0644062 C119.847773,80.5281577 119.811537,80.255489 119.702831,80.046443 C119.621301,79.8828418 119.576007,79.7101516 119.612242,79.6556179 C119.639419,79.6101731 119.63036,79.5647283 119.585066,79.5647283 C119.530713,79.5647283 119.467301,79.6647068 119.440124,79.7919522 C119.3133,80.3100228 118.733533,81.3825197 118.588591,81.3825197 C118.498003,81.3825197 118.289649,81.6279215 118.072236,81.9914798 C117.737058,82.5459062 117.48341,82.7549522 117.555881,82.4095718 C117.573999,82.3368602 117.546822,82.3005043 117.492469,82.3368602 C117.438116,82.364127 117.392822,82.4459276 117.392822,82.5004614 C117.392822,82.5640841 117.24788,82.9003755 117.075761,83.2457558 L116.76776,83.8819828 L116.76776,83.5184245 Z" id="Path"></path>
                    <path d="M50.2394861,63.404563 C50.1579564,62.8592256 50.0854855,62.2775324 50.0854855,62.0957532 C50.0854855,61.7412839 50.3028981,61.4777042 50.6108994,61.4777042 C50.8101944,61.4777042 50.8554887,61.51406 51.3627849,62.141198 C51.6073741,62.4320446 51.6889039,62.4774894 52.0331406,62.4774894 L52.4317304,62.4774894 L52.4951425,61.9594189 C52.6219665,60.9050999 52.3411418,58.1875018 51.8519634,55.7062166 C51.5167855,54.0338485 51.4805501,53.4067105 51.7070216,53.0522412 C51.8338456,52.8522841 51.9787874,52.7432166 52.1871412,52.7068608 C52.5223191,52.6523271 54.8323286,52.4887258 54.868564,52.5159927 C54.8776229,52.5341706 54.7960931,52.8613731 54.6873868,53.2612872 C54.3884444,54.361051 54.3612678,56.9150478 54.6149159,59.7235355 C54.8504463,62.4138667 54.8232697,62.3047992 55.1856242,62.2320876 C55.6385672,62.150287 55.8650387,61.9685078 56.109628,61.4777042 C56.3904527,60.9141888 56.6984539,60.7960324 57.0245729,61.1232349 C57.2238679,61.3322809 57.2329267,61.4049925 57.2419856,62.5229342 C57.2510444,63.1773391 57.2510444,63.7408544 57.2510444,63.7862992 C57.2419856,63.831744 57.1876324,63.8135661 57.1242204,63.7590323 C56.8615134,63.5408974 55.6385672,63.4590968 54.216326,63.5681642 C52.1418469,63.7317655 51.1816076,63.9317225 50.4478399,64.3589035 C50.4206633,64.3770814 50.3300747,63.9499004 50.2394861,63.404563 Z" id="Path"></path>
                    <path d="M69.4714478,63.9408115 C69.1634465,63.7590323 67.8680294,63.5681642 66.2555522,63.4681857 C65.3043718,63.404563 64.5253097,63.3500293 64.5162509,63.3409403 C64.4981331,63.3318514 64.570604,62.9592041 64.6611926,62.5138453 C64.9782528,61.0687011 65.0688414,59.7417134 65.0416648,57.3876736 C65.0235471,56.1606644 65.0054294,54.7155203 64.9963705,54.1610939 C64.9873116,53.0704191 65.0869591,52.670505 65.4311958,52.4796369 C65.5942553,52.3978363 66.0924927,52.4069252 67.8861471,52.5250817 C69.1272111,52.6068823 70.2686275,52.661416 70.4226282,52.6341491 L70.7125117,52.5887044 L70.7668649,53.5975786 C70.8665123,55.3153914 70.8574535,55.606238 70.6490997,55.824373 C70.2686275,56.2333761 69.6435661,55.9879742 69.2902706,55.2972135 C68.9550927,54.6337197 68.1035598,54.1792718 67.7864996,54.4973853 C67.4060275,54.8791215 67.0889674,57.7330539 67.1342617,60.4324741 L67.1614382,62.1593759 L67.6687345,62.1866428 C68.3390902,62.2229986 68.5836794,62.1139311 68.9007395,61.6413054 C69.2268585,61.1505017 69.6435661,61.0596122 69.8790965,61.4231704 C70.0149794,61.6322164 70.0149794,61.732195 69.8881554,62.7501581 C69.8066256,63.3591182 69.7432136,63.8953667 69.7432136,63.9408115 C69.7432136,64.04079 69.652625,64.04079 69.4714478,63.9408115 Z" id="Path"></path>
                    <path d="M57.8398704,62.777425 C58.1297539,61.2686582 58.0754008,57.9602779 57.7311641,55.6880387 C57.6496343,55.1427012 57.5771634,54.2701614 57.5681046,53.7339129 C57.5590457,52.8341062 57.5771634,52.7432166 57.7673995,52.5523485 C57.9576356,52.3523915 58.0391653,52.3433025 59.3074059,52.3433025 C60.2948217,52.3433025 60.6299995,52.3705694 60.6209407,52.45237 C60.602823,52.5159927 60.4941166,53.079508 60.3672926,53.6975571 C59.9324673,55.833462 59.9687027,57.3785846 60.4488223,57.8239435 C60.6571761,58.0239006 61.2188255,58.2056797 61.6083565,58.2056797 C61.8257692,58.2056797 61.8438869,58.1784128 61.8167103,57.9148331 C61.7985926,57.7512319 61.7532983,57.1695386 61.7261217,56.6151123 C61.6989451,56.0697748 61.6355331,55.188146 61.5902388,54.6609865 C61.4724736,53.4430663 61.5449445,52.7886614 61.8257692,52.5069038 C62.0250641,52.3069467 62.097535,52.2978577 63.3567167,52.2978577 C64.4709566,52.2978577 64.6702515,52.3160357 64.6702515,52.4341921 C64.6702515,52.5069038 64.5887218,52.9340847 64.4981331,53.3703547 C64.0995433,55.1608792 63.9093072,58.151146 64.0451901,60.5051858 C64.1538964,62.359333 64.0995433,62.8774035 63.791542,63.1864281 C63.5650705,63.413652 63.5469528,63.413652 62.4689483,63.3500293 C61.8710635,63.3227624 61.3637673,63.2773176 61.3456496,63.2591397 C61.3275318,63.2409618 61.3547084,63.1228054 61.4090616,62.986471 C61.5449445,62.6138238 61.6808274,61.6503943 61.6989451,60.9141888 C61.7170629,59.9325815 61.4181204,59.5690232 60.5847052,59.5690232 L60.2132919,59.5690232 L60.2948217,60.3688514 C60.3310571,60.8051214 60.3672926,61.5867717 60.3672926,62.0957532 C60.3672926,63.3682072 60.3491749,63.386443 58.8272862,63.386443 L57.7221052,63.386443 L57.8398704,62.777425 Z" id="Path"></path>
                    <path d="M67.7774408,59.5508453 C67.2610857,59.0327748 67.2067326,58.9327962 67.2067326,58.5965048 C67.2067326,57.8330325 67.2701446,57.7330539 67.9767357,57.2695171 C68.348149,57.0241153 68.7195623,56.8423362 68.8101509,56.8605141 C69.1543876,56.9241368 69.2359174,57.3240509 69.1181522,58.5147042 C68.9913281,59.7689803 68.8916807,60.0598269 68.5655617,60.0961827 C68.3934433,60.1143606 68.2122661,59.9871152 67.7774408,59.5508453 Z" id="Path"></path>
                    <path d="M89.9897677,54.3246951 C89.2016468,53.7066461 86.384341,52.8159283 83.0597391,52.1615234 C82.3893834,52.025189 81.827734,51.9070326 81.8186752,51.8979436 C81.8005574,51.8888547 81.9364403,51.607097 82.1085587,51.2798946 C82.6883258,50.1801308 83.2862106,48.3441615 83.784448,46.0719223 C84.2192733,44.1268855 84.3098619,43.5361033 84.5544511,41.0275512 C84.8715113,37.8191495 85.0708062,37.1011219 85.7411619,36.7830084 C86.0129277,36.646674 86.1306929,36.646674 86.71046,36.7375636 C87.5348164,36.8829869 91.9555402,37.9827507 92.6077782,38.2099746 C92.879544,38.3008642 93.4955466,38.4281096 93.9666073,38.4917323 C94.4648447,38.555355 94.836258,38.6462445 94.836258,38.7007783 C94.836258,38.755312 94.7728459,39.1461372 94.7003751,39.5733181 C94.6188453,39.9914102 94.5010801,40.8366832 94.4376681,41.4365543 C94.3651972,42.0455144 94.2564909,42.6362966 94.2021377,42.763542 C94.0662548,43.0634776 93.6676649,43.2997905 93.2962516,43.2997905 C92.6802491,43.2997905 92.2182472,42.8635205 91.7018921,41.8092015 C91.1945959,40.7821494 90.6782408,40.3640574 89.7451784,40.2186341 L89.2922354,40.1459224 L88.9027044,40.9730175 C88.467879,41.8819132 88.0330537,43.0907445 87.7703468,44.0814407 C87.3083449,45.7901646 86.3933999,50.8527136 86.520224,50.979959 C86.5474005,51.0072259 86.9550493,51.1162934 87.4442278,51.2253608 C88.5675265,51.4889406 88.9479987,51.40714 89.6364721,50.7436461 C90.161886,50.2528425 90.4155341,50.1892198 90.8503592,50.4527995 C91.0949484,50.5982228 91.3033022,50.9072473 91.3033022,51.1435602 C91.3033022,51.2980725 90.2705924,54.4792074 90.2162392,54.4701572 C90.1890626,54.4701572 90.0894151,54.4064957 89.9897677,54.3246951 Z" id="Path"></path>
                    <path d="M32.8827087,53.3339988 C31.2249371,53.0067964 29.7574017,51.9615663 28.7065738,50.3619099 C27.8640997,49.080367 26.9672725,46.8444836 26.677389,45.299361 C25.9798567,41.6274224 27.6648048,38.7280452 31.1434074,37.6101035 C33.3900049,36.8829869 35.6456612,37.0284102 37.095079,37.9918397 C38.9430866,39.2188488 39.9939145,42.3908948 38.8162625,43.1634561 C38.6984974,43.2452567 37.8560233,43.4724806 36.9410783,43.6633487 C36.0261334,43.8633058 35.2289536,44.0450849 35.1746005,44.0632628 C35.1021296,44.0905297 35.0840119,43.8723947 35.1111884,43.3179684 C35.201777,41.6910451 34.5223625,40.5276586 33.380946,40.3549684 C32.5022365,40.2186341 31.623527,40.654904 31.2249371,41.4183764 C31.0618776,41.7274009 31.0256422,41.9455359 31.0256422,42.5726739 C31.034701,43.3634132 31.0437599,43.399769 32.1036466,47.1171523 C32.2667061,47.6897566 32.4478833,48.3714284 32.5112954,48.6168302 C32.7740023,49.6257044 33.3900049,50.5891339 33.9788308,50.8981584 C34.295891,51.0617596 35.0296587,51.0617596 35.4191897,50.8981584 C35.7362498,50.761824 36.1348397,50.3891768 36.2978992,50.0710633 C36.506253,49.6620603 36.506253,49.080367 36.3160169,48.3896063 C35.9808391,47.1989529 35.8902505,47.3171094 37.4030802,46.971729 C38.9430866,46.6172597 39.3326176,46.5990818 39.7312075,46.8444836 C40.2385037,47.1535082 40.34721,47.4807106 40.3381512,48.662275 C40.3381512,49.6529713 40.3200334,49.7438609 40.0301499,50.3709989 C39.6225012,51.2617167 38.9068512,51.9342995 37.7563758,52.5069038 C35.9989568,53.3794436 34.4680093,53.6430234 32.8827087,53.3339988 Z" id="Path"></path>
                    <path d="M41.6154506,51.4253179 C41.7060392,50.9345142 41.6788626,49.0712781 41.5701563,48.1260265 C41.1715664,44.87218 40.7729765,43.0907445 39.7130898,39.8005421 C39.4322651,38.9370912 39.1242638,37.4828581 39.1242638,37.082944 C39.1333227,36.655763 39.4050885,36.2013152 39.7583841,36.019536 C40.0482676,35.8741127 44.0885196,35.1560851 44.1700493,35.2378857 C44.188167,35.2560636 44.1428727,35.7832231 44.061343,36.4012722 C43.8258126,38.3099531 43.798636,39.6642077 43.9616955,40.9184838 C44.1609905,42.4272506 44.4236974,42.9180543 45.229936,43.2543457 C45.5832316,43.399769 46.6793538,43.4543027 47.1141791,43.3452352 L47.3406506,43.2907015 L47.1685323,42.2727383 C47.0688848,41.709223 46.8061778,40.5549255 46.5887652,39.7005635 C45.9093506,37.0374992 45.7915854,36.0558918 46.081469,35.4832876 C46.3351171,34.965217 46.6068829,34.8743275 48.5001848,34.6743704 C49.4513652,34.5653029 50.4206633,34.4653244 50.6652526,34.4380575 L51.1091368,34.3835238 L51.0457247,34.6834594 C50.7377235,36.1286035 50.638076,39.0552476 50.8101944,41.5274439 C50.9279595,43.2816125 51.0457247,44.1268855 51.4624323,46.4354806 C51.8972577,48.8622321 51.9063165,49.6893271 51.5258444,50.0801523 C51.2993728,50.3073762 51.1725488,50.3346431 49.4513652,50.5346001 C48.4367728,50.6527566 47.5942987,50.7345572 47.576181,50.7163793 C47.5490044,50.6982013 47.576181,50.3619099 47.6305342,49.9801737 C47.7573582,49.1076339 47.7573582,47.2898425 47.6305342,46.762683 C47.4221804,45.8537873 46.9601785,45.5356738 45.8278209,45.5356738 C44.8947582,45.5356738 44.8132284,45.5720297 44.9309936,45.9628548 C45.229936,46.971729 45.75535,49.2257903 45.8006443,49.6984161 C45.8640563,50.3709989 45.6828791,50.8436246 45.3024069,51.0163148 C45.1755829,51.0799375 44.3693443,51.2526277 43.5178113,51.398051 C42.6753373,51.5525633 41.8781575,51.6979866 41.7603923,51.7252535 C41.5520385,51.7797872 41.5520385,51.7616093 41.6154506,51.4253179 Z" id="Path"></path>
                    <path d="M80.1156093,51.398051 C79.8438435,51.2980725 79.291253,51.2617167 77.9414827,51.2526277 C75.8941801,51.2344498 75.5952377,51.1799161 74.4538213,50.6254897 C73.493582,50.1619529 72.6148725,49.3348578 72.2344003,48.5259407 C72.0079288,48.0442259 71.9716934,47.8533578 71.9354579,46.8899284 C71.8901636,45.499318 72.0351054,44.8267352 72.5514605,44.1632414 C73.4482877,42.9907659 74.3360561,42.4454285 76.5917124,41.6637782 C78.901722,40.8548611 79.6445485,40.3549684 79.6445485,39.5733181 C79.6445485,39.0734255 79.2640764,38.5189992 78.7748979,38.2917752 C77.7603055,37.8373274 76.1025339,38.3553979 74.6440573,39.5733181 C73.7019358,40.3731464 73.366758,40.5094807 72.8866383,40.2913457 C72.5876959,40.1550114 72.2796946,39.5824071 72.2796946,39.1552261 C72.2796946,38.9552691 72.3431067,38.6007998 72.4246364,38.346309 C72.7235788,37.3556127 72.9953447,36.228582 73.0496978,35.6923336 L73.1131098,35.1379072 L74.2998206,35.1379072 C74.9611175,35.1379072 75.839827,35.0924624 76.2655934,35.0379287 C78.3219549,34.76526 80.3692574,35.1560851 81.6012625,36.0649808 C82.9782093,37.082944 83.6938594,38.5644439 83.6938594,40.3913243 C83.6938594,42.3272721 83.1050334,43.82695 82.0542055,44.5813334 C81.9092638,44.6813119 81.1302017,44.9630696 80.3239631,45.2084714 C77.9777181,45.9083211 76.8453605,46.2900573 76.5283004,46.5081922 C76.1568871,46.762683 75.839827,47.2080419 75.7130029,47.6806677 C75.5590023,48.2805388 75.7582972,48.653186 76.4014763,48.8985879 C76.7547719,49.0349222 76.8363017,49.0349222 77.2801859,48.8985879 C77.8871295,48.7258977 78.4578378,48.3623394 79.1734878,47.7079345 C80.3149042,46.6536155 81.0033777,46.6445266 81.3385555,47.6988456 C81.4925562,48.1896492 81.3929087,48.7804314 80.9671422,49.8983731 C80.7769062,50.4164437 80.6138467,50.9345142 80.6047878,51.0526707 C80.5957289,51.4889406 80.5141992,51.5434743 80.1156093,51.398051 Z" id="Path"></path>
                    <path d="M70.3773339,50.6164007 C70.042156,50.4437105 69.1815642,50.2346645 68.2937959,50.1165081 C67.8680294,50.0619744 67.4060275,49.9983517 67.2520269,49.9710848 C67.1070851,49.9529069 65.8479034,49.9074621 64.4618977,49.8711063 C61.9616521,49.8165725 61.9344755,49.8165725 61.9797698,49.6257044 C62.0069464,49.5166369 62.1156527,49.1258118 62.2153002,48.7531646 C62.5685958,47.4625327 62.7135376,45.7447199 62.7135376,42.7998978 C62.7135376,40.6185482 62.686361,39.81872 62.5414192,38.8007568 C62.3149477,37.073855 62.29683,35.0015728 62.5233015,34.6016587 C62.7950673,34.0926772 63.0305977,34.0290545 64.7246047,34.0290545 C65.548961,34.0290545 67.1523794,34.0926772 68.284737,34.1744778 C69.4080357,34.2562784 70.7306294,34.3017232 71.2198079,34.2835453 L72.0985174,34.2471894 L72.0985174,34.8016158 C72.0985174,35.1015514 72.1438117,36.028625 72.2072238,36.85572 C72.3068712,38.3008642 72.3068712,38.3826648 72.1347529,38.6735114 C71.799575,39.2461157 70.957101,39.3188274 70.3410984,38.8371126 C70.2052155,38.7280452 69.8790965,38.346309 69.6073307,37.9736617 C68.9550927,37.0920329 68.4659142,36.8284532 67.5872047,36.864809 L66.9893199,36.8920759 L66.8715547,37.3010789 C66.6360243,38.0827292 66.4004939,39.3006494 66.3461408,39.9550543 C66.3099053,40.3186126 66.264611,40.6730819 66.2464933,40.7457936 C66.1830813,40.9457506 66.201199,46.4173027 66.264611,47.2625756 L66.328023,47.9987812 L67.0346142,48.0624039 C68.1850895,48.1623824 68.936975,47.8988026 69.2540351,47.2807536 C69.6345073,46.5445481 70.2686275,46.35368 70.7487472,46.8353947 C71.0567484,47.1535082 71.083925,47.4716217 70.8846301,48.7804314 C70.8121592,49.2348793 70.7306294,49.8529284 70.7125117,50.143775 C70.6853351,50.4346216 70.6490997,50.6891124 70.630982,50.7072903 C70.6219231,50.7254682 70.5041579,50.6800234 70.3773339,50.6164007 Z" id="Path"></path>
                    <path d="M60.9108242,50.1528639 C59.9052907,49.7802167 56.3451584,49.7893057 53.0567919,50.1710418 C52.8122026,50.1983087 52.6219665,50.1983087 52.6219665,50.1710418 C52.6219665,50.1528639 52.6944374,49.8529284 52.7759672,49.507548 C52.9118501,48.9894775 52.9390267,48.462318 52.9299678,46.2537014 C52.9299678,42.9362322 52.7940849,41.7546678 52.0421994,38.0463734 C51.7613747,36.7012078 51.6979627,35.2924195 51.8972577,34.9015943 C52.2143178,34.2653673 52.9571444,34.1472109 57.1061027,34.0654103 C58.6823445,34.0381434 60.0411736,33.9654318 60.5031755,33.8836312 C60.928942,33.8109195 61.3003553,33.7563858 61.3275318,33.7563858 C61.3547084,33.7563858 61.4090616,34.0563213 61.4362382,34.4198796 C61.4724736,34.7743489 61.5992977,35.6559777 61.7170629,36.3740053 C61.9616521,37.7918826 61.9344755,38.1190851 61.5540034,38.4735544 C61.255061,38.755312 60.7024704,38.8189347 60.2948217,38.6189777 C60.1136445,38.5371771 59.6788192,38.1645298 59.3345824,37.7918826 C58.5464615,36.9556986 58.1025774,36.7284747 57.2601033,36.7466526 C56.9339843,36.7466526 56.625983,36.7920974 56.5716299,36.8466311 C56.2183343,37.2011004 56.0643337,40.663993 56.2817463,43.1634561 C56.4266881,44.8449131 56.6531596,46.8444836 56.7709248,47.5716002 L56.8433957,47.9806032 L57.60434,47.9533364 C58.9359926,47.9078916 59.3436413,47.7079345 59.7331723,46.9353732 C60.1317622,46.144634 60.729647,45.9719438 61.2460021,46.4900143 L61.5268268,46.762683 L61.4634148,47.8624468 C61.4362382,48.4714069 61.4090616,49.2621462 61.4090616,49.6347934 C61.4090616,49.9983517 61.381885,50.2982872 61.3456496,50.2891983 C61.3003553,50.2891983 61.1101192,50.2255756 60.9108242,50.1528639 Z" id="Path"></path>
                    <path d="M89.0838816,48.4714069 C88.793998,48.3259836 87.4079923,46.4900143 87.4170512,46.2718794 C87.4170512,46.1628119 87.5076398,45.7719867 87.6163461,45.3993395 L87.8156411,44.7267567 L88.9389398,44.3268426 C90.2615335,43.8633058 90.5967111,43.8360389 90.8141237,44.1632414 C91.0949484,44.5904223 90.8503592,46.0264775 90.2343569,47.6534008 C89.9172968,48.462318 89.5730601,48.7168087 89.0838816,48.4714069 Z" id="Path"></path>
                    <path d="M68.2303838,44.9630696 C68.0673243,44.87218 67.569087,44.4813549 67.1161439,44.0905297 C66.3099053,43.3815911 66.3008465,43.3725021 66.3008465,42.9544101 C66.3008465,42.7180972 66.328023,42.3181831 66.3551996,42.0727813 L66.4095528,41.6183334 L67.4150864,41.0275512 C68.6652092,40.2913457 68.8554452,40.227723 69.1453288,40.4185911 C69.5076832,40.663993 69.6163895,41.3547537 69.4895655,42.6635635 C69.3536826,44.0450849 69.2359174,44.5995113 69.0094459,44.8903579 C68.7920332,45.1630266 68.6199148,45.1721156 68.2303838,44.9630696 Z" id="Path"></path>
                    <path d="M58.1116362,44.5722444 C57.8761058,44.4177322 57.4050451,44.0905297 57.0789261,43.8360389 C56.4176292,43.3361463 56.3542172,43.1998119 56.3451584,42.1545819 C56.3360995,41.6183334 56.299864,41.6546893 57.5590457,40.7639715 C58.31999,40.2186341 58.519285,40.1186556 58.7819919,40.1368335 C59.0537578,40.1641003 59.1262286,40.2186341 59.2802293,40.5276586 C59.4251711,40.8275942 59.4614065,41.1275298 59.4885831,42.1909377 C59.5067008,42.8998764 59.4976419,43.7087935 59.4704654,43.9723733 C59.3527002,44.863091 58.8906983,45.0630481 58.1116362,44.5722444 Z" id="Path"></path>
                    <path d="M23.9959661,37.710082 C23.9959661,37.6737262 24.0865547,37.501036 24.1862022,37.3283458 C24.4036149,36.9829654 24.3673794,37.3374348 24.7387927,31.5295913 C24.9652643,28.1394104 24.983382,25.5399688 24.8112636,23.9403124 C24.6029098,22.113432 24.7297339,21.2136253 25.2098535,20.8864229 C25.4091484,20.7682664 28.8786922,19.8502818 29.1776346,19.8502818 C29.2863409,19.8502818 29.3497529,19.9957051 29.4312827,20.5137756 C29.603401,21.6226284 29.9657555,22.758748 30.4005808,23.594932 C30.8263472,24.4038492 31.7412922,25.6126804 31.8681162,25.5308798 C31.9134105,25.5127019 31.9677637,25.1309657 31.9949403,24.6946958 C32.1036466,22.8587265 32.3572947,20.3229075 32.4750599,19.8866376 C32.601884,19.4049229 32.7921201,19.1322542 33.1001213,18.959564 C33.2631808,18.8777634 36.569665,18.2142695 36.8414309,18.2142695 C36.9139018,18.2142695 36.9139018,18.2869812 36.8414309,18.4960272 C36.4337821,19.6775916 38.3270841,23.5767541 43.4181639,31.9749502 C43.7442829,32.5202876 44.0160487,33.0020023 44.0160487,33.0383582 C44.0160487,33.083803 43.8801658,33.1383367 43.7261651,33.1656036 C38.3361429,34.0926772 38.4267315,34.0926772 38.0643771,33.5473398 C37.747317,33.083803 37.7835524,32.5566435 38.1730834,31.9113275 C38.7800271,30.9024533 38.8887334,30.4298276 38.8887334,28.8483491 C38.8887334,27.5213614 38.8796746,27.4122939 38.6622619,26.9396681 C38.4267315,26.4215976 37.9647296,25.9489718 37.6929638,25.9307939 C37.0044904,25.8762602 36.7417834,26.4034197 36.3069581,28.7120147 C36.0623688,30.0026466 36.0080157,32.3475974 36.2073106,33.0110913 C36.3613112,33.5291618 36.7870777,33.9926986 37.2037853,34.0926772 L37.5389632,34.1835667 L37.1766087,34.2744563 C36.9773138,34.32899 36.0170745,34.5380361 35.0477764,34.756171 C34.0784783,34.965217 33.054827,35.2015299 32.7830612,35.2651526 C31.6416447,35.5559992 31.0799953,35.3651311 30.8897593,34.6198367 C30.7629352,34.119944 30.7991707,33.9381649 31.2521137,32.8747569 C31.7322333,31.7477263 31.9043517,30.9024533 31.8409397,29.9935576 C31.7684688,28.9301497 31.2521137,27.9576313 30.5908169,27.6122509 C30.3552865,27.4850055 30.3009333,27.4850055 30.1197561,27.6122509 C30.0019909,27.6849626 29.866108,27.8576528 29.8117548,28.0030761 C29.7211662,28.2575669 29.5762244,30.6116067 29.4584592,33.6654962 C29.4222238,34.7379931 29.3588118,35.4560207 29.277282,35.6377998 C29.1051637,36.0740698 28.5706909,36.3740053 27.4202156,36.7102967 C26.2244459,37.0647661 24.3492617,37.6373703 24.1409079,37.7191709 C24.0593782,37.7464378 23.9959661,37.7464378 23.9959661,37.710082 Z" id="Path"></path>
                    <path d="M100.978166,37.6101035 C100.14475,37.3192568 99.456277,36.2831158 99.456277,35.3378643 C99.456277,34.547125 99.9454555,33.0110913 100.498046,32.0658398 C100.842283,31.4659686 101.403932,30.8842754 101.893111,30.5934288 C102.445701,30.2662263 103.469352,30.2480484 104.031002,30.547984 C104.538298,30.8206527 104.945947,31.2751005 105.118065,31.7477263 C105.290183,32.2476189 105.290183,33.28376 105.118065,33.9836097 C104.782887,35.3287753 103.623353,37.0647661 102.780879,37.501036 C102.2917,37.7464378 101.521697,37.7918826 100.978166,37.6101035 Z M102.047111,36.2558489 C102.173935,36.1286035 102.400407,35.7559563 102.554407,35.4196649 C103.750177,32.7747784 103.858883,32.4112201 103.559941,32.0385729 C103.451235,31.9113275 103.288175,31.8295269 103.134175,31.8295269 C102.654055,31.8295269 102.436642,32.1112846 101.693816,33.7200299 C100.914754,35.4105759 100.769812,35.9922691 101.041578,36.3012937 C101.277108,36.5648734 101.766287,36.5376066 102.047111,36.2558489 Z" id="Shape"></path>
                    <path d="M90.2615335,35.401487 C89.1654113,35.1197293 88.2232898,34.8652385 88.1598778,34.8379716 C88.0964657,34.8197937 88.2504664,34.4562354 88.5856442,33.8654532 C90.2343569,30.9206312 91.4301263,26.757889 91.7471864,22.8223707 C91.8015396,22.2406774 91.9102459,21.5317388 91.9917757,21.2590701 C92.2001295,20.6228431 92.6711902,20.1411284 93.2600162,19.9866161 C93.6495472,19.8866376 93.7854301,19.9048155 94.4739035,20.0956836 C99.7914549,21.5862725 102.427583,22.2043216 102.998292,22.0861652 C103.143233,22.0588983 103.260999,22.0498093 103.260999,22.0588983 C103.260999,22.0679872 103.143233,22.549702 102.989233,23.1404842 C102.844291,23.7221774 102.681231,24.5583614 102.617819,25.0037203 C102.445701,26.2852632 102.264524,26.5761098 101.594168,26.5761098 C100.878518,26.5761098 100.507105,26.1761957 99.9635732,24.8128522 C99.7733372,24.3129596 99.3385118,23.8403338 98.8493333,23.594932 C98.5232144,23.4222418 97.245915,23.0314167 97.0375612,23.0314167 C96.8382662,23.0314167 95.9504979,25.1036988 95.3979073,26.8487786 C94.8271991,28.648392 93.7491947,33.6382293 93.7491947,34.4835023 C93.7491947,34.965217 93.595194,35.4287538 93.3415459,35.7014225 C93.0244858,36.0468029 92.5896605,36.0104471 90.2615335,35.401487 Z" id="Path"></path>
                    <path d="M96.7386188,35.6741557 C95.225789,35.2106189 94.636963,33.9472539 95.0989649,32.1203735 C95.3435542,31.1296772 95.9867333,29.8208674 96.4940295,29.2482632 C97.3999156,28.2484779 98.5232144,27.9758092 99.5378068,28.5302356 C100.62487,29.1301067 100.94193,30.0662693 100.54334,31.5023245 C100.425575,31.9113275 100.045103,32.3930422 99.8276903,32.3930422 C99.6102777,32.3930422 98.5503909,31.8658827 98.5503909,31.7659042 C98.5503909,31.7113705 98.5956852,31.6477478 98.6409795,31.6204809 C98.7859213,31.5295913 99.0758049,30.9206312 99.1392169,30.5661619 C99.2660409,29.8935791 98.5685087,29.5118429 98.0702713,29.9753797 C97.6173283,30.3934717 96.3762643,33.1928704 96.3762643,33.7927416 C96.3762643,34.2199226 96.593677,34.4835023 96.9288548,34.4835023 C97.1915618,34.4835023 97.635446,34.0381434 97.7441523,33.6564072 C97.8075643,33.4655391 97.9072118,33.3019379 97.9706238,33.3019379 C98.0430947,33.3019379 98.3239194,33.4110054 98.5956852,33.5473398 C99.3656884,33.9290759 99.3838061,34.3562569 98.6681561,35.1288182 C98.1336833,35.7014225 97.4633276,35.8922906 96.7386188,35.6741557 Z" id="Path"></path>
                    <path d="M84.8171581,34.5743919 C84.5997454,34.3562569 82.6792669,33.7472968 81.4744384,33.5200729 C80.133727,33.2655821 77.3526567,32.8474901 76.2384169,32.7384226 C75.6042966,32.6838889 75.0426472,32.6020882 74.988294,32.5657324 C74.9158232,32.5202876 74.9429997,32.3930422 75.0788827,32.1567294 C75.6314732,31.1296772 76.0481808,29.5754656 76.4014763,27.2123368 C76.7366542,24.9582755 76.8363017,23.385886 76.7728896,21.5317388 C76.7004188,19.7048585 76.8181839,18.2597143 77.0627732,17.7689107 C77.3254802,17.2326622 77.6334814,17.0781499 78.376308,17.0872389 C79.2821941,17.1054168 83.5036233,17.7325548 85.3697486,18.12338 C85.867986,18.2324475 86.7195189,18.3415149 87.2539917,18.3687818 C88.0330537,18.4142266 88.2232898,18.4505824 88.1870544,18.5505609 C88.1417601,18.6596284 88.0330537,21.5044719 88.0421126,22.331567 C88.0421126,22.5133461 87.9424651,22.6951253 87.7341113,22.9041713 C87.4623455,23.17684 87.3717569,23.2131958 86.9459904,23.2131958 C86.1850461,23.2131958 85.668691,22.8405486 85.0073942,21.8225854 C84.4457448,20.9409566 83.8388011,20.5501314 82.8151499,20.3956192 C82.479972,20.3501744 82.1719707,20.3047296 82.1447941,20.3047296 C82.0542055,20.3047296 81.4744384,21.7316958 81.2570258,22.4588124 C80.8856125,23.7312663 80.6229055,25.2491221 80.4326694,27.3486712 C80.2333745,29.5936435 80.1427859,31.2296558 80.2243156,31.3114564 C80.3601986,31.4477907 82.1719707,31.6841036 82.6067961,31.6204809 C83.1503277,31.5386803 83.3043283,31.4477907 83.7935068,30.9388091 C84.0199784,30.7024963 84.3189208,30.4934502 84.4638625,30.4661834 C84.9983353,30.3571159 85.6233967,30.7206742 85.7321031,31.2023889 C85.7592796,31.3387232 85.6505733,31.9476833 85.4693961,32.6657109 C85.2972777,33.3382937 85.1342182,34.0654103 85.0979828,34.2835453 C85.0345708,34.6743704 84.9802176,34.7379931 84.8171581,34.5743919 Z" id="Path"></path>
                    <path d="M106.359129,33.3928275 C105.960539,33.1474257 105.833715,32.8474901 105.978657,32.4930208 C106.214187,31.9204165 106.658071,31.7749932 107.246897,32.0749287 C107.763252,32.3475974 107.826664,32.9111128 107.38278,33.3564717 C107.120073,33.6200514 106.757719,33.6382293 106.359129,33.3928275 Z" id="Path"></path>
                    <path d="M46.1901753,32.6929778 C46.1901753,32.647533 46.2535873,32.3021527 46.3260582,31.9113275 C46.6974715,29.9662908 46.3169994,25.1036988 45.5922905,22.3951897 C44.9762879,20.1138615 44.8313462,19.4685456 44.776993,18.7050732 C44.6682867,17.2144843 44.9581702,16.9509045 46.923943,16.7236806 C48.61795,16.5328125 50.6290171,16.3601223 50.6652526,16.4055671 C50.6924292,16.423745 50.5927817,16.9145487 50.4478399,17.487153 C50.0401912,19.1867879 49.8680728,20.6046652 49.922426,21.9770977 C49.9586614,22.7223921 50.0220735,23.2859075 50.1036032,23.4858645 C50.4568988,24.3129596 51.290314,24.7037847 52.6944374,24.6946958 C53.1564393,24.6946958 53.5550292,24.6765179 53.5731469,24.649251 C53.6546767,24.5674504 53.3285577,22.3043001 53.0205564,20.8046222 C52.6129077,18.8595855 52.5223191,17.3326407 52.7759672,16.850926 C53.0567919,16.3146776 53.3919697,16.1965211 54.7870343,16.1147205 C56.5897476,16.014742 58.6008147,16.014742 58.6008147,16.1238095 C58.6008147,16.1692542 58.5011672,16.5873463 58.383402,17.0508831 C57.9214001,18.8686744 57.8308115,19.8321039 57.8308115,23.1223062 C57.8398704,25.9398829 57.8579881,26.2943522 58.0844596,27.8849196 C58.4558729,30.5025392 58.4015198,31.3478122 57.8217527,31.7204594 C57.6224577,31.8567938 57.2872799,31.9022386 56.0280982,31.9567723 C55.1765653,31.9840392 54.1800906,32.0476619 53.8086773,32.0749287 C53.1836159,32.1385514 53.1473805,32.1294625 53.2017336,31.9658613 C53.4916172,31.2387447 53.7815007,28.5393245 53.6275001,27.9667202 C53.4010286,27.1396252 52.8846735,26.8306006 51.6254918,26.7851559 C51.1544311,26.7669779 50.7105469,26.7851559 50.6471349,26.8306006 C50.5203108,26.9124012 50.5384285,27.0305577 50.9551361,28.8937938 C51.2450197,30.2116926 51.290314,31.384168 51.0638425,31.811349 C50.8645475,32.1749073 50.4206633,32.3566864 49.4966595,32.4293981 C48.3733608,32.5293766 47.8298291,32.5839103 47.18665,32.6747999 C46.4619411,32.7747784 46.1901753,32.7747784 46.1901753,32.6929778 Z" id="Path"></path>
                    <path d="M71.5187503,32.647533 C70.7125117,32.1839962 67.4241452,31.8477048 63.5650705,31.8477048 C62.4780072,31.8477048 61.5902388,31.8295269 61.5902388,31.80226 C61.5902388,31.7840821 61.6717686,31.5568582 61.771416,31.3114564 C62.0431818,30.6116067 62.29683,29.2119073 62.4055363,27.803119 C62.5504781,25.9580608 62.5323603,22.9223492 62.3693008,21.6226284 C61.9525932,18.3415149 61.9254167,18.0052235 62.0250641,17.3689966 C62.2243591,16.0874536 62.423654,15.9874751 64.8061344,16.014742 C65.8026091,16.0329199 67.2701446,16.0874536 68.0673243,16.1328984 C68.8645041,16.1874322 70.3501573,16.2419659 71.3738086,16.2692328 L73.230875,16.3146776 L73.2942871,17.4962419 C73.3214636,18.1506468 73.3939345,19.0231867 73.4573466,19.4321898 C73.5479352,20.0684167 73.5388763,20.232018 73.43017,20.5137756 C73.167463,21.1227357 72.4880484,21.3499597 71.7542807,21.0772909 C71.4372206,20.9500456 71.1020427,20.6773768 70.4679225,20.0320609 C69.45333,18.9959198 69.0909756,18.8232296 68.02203,18.8686744 L67.369792,18.8959413 L67.1976737,19.4412787 C66.59073,21.3772265 66.4276705,23.3313522 66.5635534,27.1487141 C66.6179066,28.7029257 66.6813186,29.9844687 66.6994363,30.0026466 C66.7175541,30.0208245 67.2520269,30.0390024 67.895206,30.0480914 C69.2993294,30.0753582 69.7613313,29.920846 70.1418035,29.3209748 C70.6038054,28.5756804 71.1835725,28.3848123 71.7905162,28.7665484 C72.2253415,29.0301282 72.3068712,29.4118644 72.1438117,30.3843828 C72.0713408,30.8115637 71.9807522,31.5114134 71.9445168,31.9295054 C71.8992225,32.3475974 71.8358105,32.7111557 71.7814573,32.7202447 C71.736163,32.7384226 71.6093389,32.7020668 71.5187503,32.647533 Z" id="Path"></path>
                    <path d="M82.6249138,28.5120577 C82.4256188,28.3666343 81.9092638,27.9212755 81.4834973,27.5031834 C80.8946713,26.9305792 80.7044353,26.6942663 80.7044353,26.5124871 C80.7044353,26.0853062 80.9037302,25.1309657 81.0033777,25.0400761 C81.2117315,24.8764749 83.5398587,24.0312019 83.7935068,24.0312019 C83.9293897,24.0312019 84.1558613,24.1311805 84.300803,24.2493369 C84.5453923,24.4583829 84.5544511,24.5038277 84.5363334,25.2309442 C84.5091568,26.4761313 84.0290372,28.3666343 83.6666828,28.6211251 C83.3767992,28.8210822 83.0416214,28.7847264 82.6249138,28.5120577 Z" id="Path"></path>
                    <path d="M68.8373275,26.9305792 C68.348149,26.6306436 67.2882623,25.8489933 66.9621433,25.5399688 C66.6360243,25.2491221 66.6088477,25.0309872 66.7175541,24.0675578 L66.7719072,23.604021 L68.1126186,22.9405271 C69.3355649,22.331567 69.4805066,22.2770333 69.7522725,22.3588339 C70.2233332,22.4860793 70.3773339,22.8859934 70.3773339,23.9494013 C70.3773339,24.9491866 70.1508623,26.4215976 69.9425085,26.7760669 C69.716037,27.166892 69.3174471,27.2214258 68.8373275,26.9305792 Z" id="Path"></path>
                    <path d="M34.1690669,7.46203358 C34.9662467,7.01667469 34.8484815,6.8258066 33.9154188,7.07120843 C33.6708296,7.14392009 33.4262403,7.162098 33.3900049,7.12574217 C33.3447106,7.08938635 33.1635334,7.0984753 32.9823561,7.14392009 C32.7921201,7.19845383 32.4478833,7.24389861 32.1942352,7.26207653 C31.949646,7.27116548 31.6597624,7.30752131 31.560115,7.34387714 C31.4423498,7.38932192 31.4604675,7.36205505 31.6054093,7.27116548 C32.1308232,6.94396304 34.2053024,6.19866858 35.5460138,5.85328821 C36.3431935,5.64424221 37.1222556,5.44428516 37.2671973,5.39884037 C38.3361429,5.05346001 43.9435778,4.02640789 44.7407576,4.02640789 C45.0125234,4.02640789 45.7100557,3.94460728 46.2807639,3.85371771 C46.8514721,3.75373918 47.5580633,3.68102753 47.838888,3.68102753 C48.1287715,3.68102753 48.3914785,3.66284961 48.4367728,3.63558274 C48.5454791,3.57196004 50.9732538,3.32655821 52.2143178,3.26293551 C53.6275001,3.19022386 59.3527002,3.1811349 60.6390584,3.25384655 C61.1916489,3.28111342 62.0612996,3.33564717 62.5867135,3.36291404 C63.1121274,3.39018091 63.7824831,3.42653673 64.0814255,3.44471465 C64.380368,3.47198152 65.1956654,3.52651526 65.8931977,3.581049 C66.59073,3.63558274 67.369792,3.69011648 67.6143813,3.71738335 C71.0567484,4.05367476 72.062282,4.16274224 73.1312276,4.31725451 C74.2545263,4.48085573 76.0481808,4.67172382 77.8055998,4.80805818 C79.0828992,4.91712566 79.4724302,4.9716594 79.744196,5.08072688 C79.8981966,5.14434958 80.4145517,5.28977289 80.8856125,5.39884037 C81.3566733,5.50790785 81.827734,5.65333116 81.9364403,5.71695386 C82.0360878,5.78057656 82.3440891,5.86237717 82.6158549,5.88964404 C82.8876207,5.92599987 83.3133872,5.97144465 83.5579764,5.99871152 C83.8116245,6.03506735 84.2555087,6.1714017 84.5544511,6.31682501 C85.3969252,6.71673912 87.4170512,7.12574217 89.3103531,7.28025444 C89.9625911,7.32569923 90.098474,7.3529661 89.8448259,7.39841088 C89.6727075,7.43476671 88.6943506,7.36205505 87.6706993,7.24389861 C85.7411619,7.02576365 85.0526885,6.95305199 80.7950239,6.48951519 C76.6551245,6.04415631 72.9319326,5.68968699 70.6490997,5.53517472 C70.1780389,5.50790785 69.0185047,5.42610724 68.0673243,5.35339559 C64.5162509,5.08981584 61.4271793,5.00801523 57.1061027,5.06254897 C54.7689166,5.0989048 52.6853786,5.14434958 52.4860836,5.17161645 C52.2867887,5.18979436 51.4896089,5.25341706 50.7196057,5.3079508 C49.1433639,5.41701829 45.8640563,5.78057656 44.5595803,5.98962257 C42.3311006,6.33500293 41.2530961,6.50769311 38.9883809,6.89851825 C37.6476695,7.13483113 36.379429,7.32569923 36.180134,7.32569923 C35.9808391,7.32569923 35.3738954,7.42567775 34.8303638,7.54383419 C34.2868321,7.66199063 33.7976536,7.76196915 33.7433004,7.76196915 C33.6889473,7.76196915 33.8791834,7.6256348 34.1690669,7.46203358 Z" id="Path"></path>
                    <path d="M90.1256506,4.25363181 C82.7155024,3.13569012 74.3994681,2.30859504 67.5781458,2.02683738 C65.0869591,1.92685885 58.8001097,1.95412572 51.2450197,2.09046008 C49.5691304,2.1268159 48.1197127,2.11772695 48.0291241,2.08137112 C47.9385355,2.04501529 47.4312392,2.01774842 46.8967664,2.03592634 C46.3532348,2.04501529 45.9184095,2.02683738 45.9184095,2.00865947 C45.9184095,1.98139259 46.1267633,1.89050303 46.3713525,1.80870241 C46.6250006,1.7269018 46.8242956,1.61783432 46.8242956,1.57238954 C46.8242956,1.52694475 46.8242956,1.46332205 46.8242956,1.43605518 C46.8242956,1.39969936 46.6068829,1.36334353 46.3532348,1.34516561 C45.4835842,1.29063187 44.8313462,1.1997423 44.8313462,1.13611961 C44.8313462,1.10885274 44.6592278,1.09067482 44.450874,1.10885274 C43.8076949,1.17247543 44.1066373,1.054319 45.1121709,0.854361944 C45.9999392,0.672582807 48.7175975,0.399914102 50.9460773,0.263579749 C51.4986678,0.227223921 52.1056115,0.181779137 52.3049064,0.163601223 C52.8303203,0.118156439 58.8906983,0 60.9108242,0 C61.8620046,0 63.2480103,0.0272668706 63.9908369,0.0727116548 C64.7427224,0.109067482 65.7754325,0.154512267 66.3008465,0.181779137 C67.2973212,0.227223921 69.5258009,0.381736188 70.1508623,0.445358886 C70.3501573,0.4635368 70.8031003,0.508981584 71.147337,0.536248454 C73.1584042,0.708938635 76.4739472,1.09067482 78.2132485,1.35425457 C79.6717251,1.58147849 81.4744384,1.7905245 82.8604442,1.89959198 C83.2680929,1.93594781 83.7572714,2.03592634 83.9475075,2.1268159 C84.1286847,2.21770547 84.5453923,2.35403983 84.8715113,2.43584044 C85.1976303,2.51764105 85.5509258,2.64488644 85.6596322,2.7175981 C85.7683385,2.79939871 86.1759872,2.89937724 86.5655183,2.95391098 C87.2449328,3.04480055 87.42611,3.10842324 88.1508189,3.49015943 C88.6399974,3.74465022 90.035062,4.09911954 91.2761256,4.26272077 C91.8649516,4.34452138 92.363189,4.43541095 92.3813067,4.45358886 C92.4718953,4.54447843 91.4210674,4.45358886 90.1256506,4.25363181 Z" id="Path"></path>
                </g>
            </g>
        </g>
    </g>
</svg>